<mxfile host="app.diagrams.net" modified="2023-05-29T09:59:00.566Z" agent="Mozilla/5.0 (Windows NT 10.0; Win64; x64) AppleWebKit/537.36 (KHTML, like Gecko) Chrome/113.0.0.0 Safari/537.36 Edg/113.0.1774.57" etag="PrE03yEQ__rg2xIlJOyp" version="21.3.5" type="github">
  <diagram name="Page-1" id="9361dd3d-8414-5efd-6122-117bd74ce7a7">
    <mxGraphModel dx="1507" dy="2068" grid="1" gridSize="10" guides="1" tooltips="1" connect="1" arrows="1" fold="1" page="0" pageScale="1.5" pageWidth="826" pageHeight="1169" background="none" math="0" shadow="0">
      <root>
        <mxCell id="0" />
        <mxCell id="1" parent="0" />
        <mxCell id="71" value="rt submit_changes" style="rounded=1;fontStyle=1;fillColor=#FFD966;strokeColor=none" parent="1" vertex="1">
          <mxGeometry x="50" y="20" width="150" height="30" as="geometry" />
        </mxCell>
        <UserObject label="" plantUmlData="{&#xa;  &quot;data&quot;: &quot;@startuml\nautonumber\n\nactor 用户 as 用户\n\nparticipant 网银 as 网银 order 10\nparticipant 现金管理 as 现金管理 order 20\ndatabase 业务数据库 as 业务数据库 order 40\nparticipant 对公存款 as 对公存款 order 50\n用户 -&gt; 网银 ++: 提交制单复核\n网银 -&gt; 现金管理 ++: 调用A05816503-海外转账及汇款复核\n现金管理 -&gt; 业务数据库 ++: 插入s19t1_txn_svc_jrnl-交易流水表\\n该表会记录traceid\nreturn\n\n现金管理 -&gt; 现金管理 ++ #005500 :&lt;font color=red&gt;调用对公流程sdk&lt;/font&gt;\nnote right of 现金管理\n调用对公流程com.ccb.dglc\n提供的相关sdk进行工作流的处理\nend note\n\n现金管理 -&gt; 业务数据库 ++: 更新活动信息表:S03T1_WF_Pcs_Avy。\nreturn\n\n现金管理 -&gt; 业务数据库 ++: 更新代办表:S03T1_WF_Todo_Pcs_Avy_Inf。锁定记录\nreturn\n\n现金管理 -&gt; 业务数据库 ++:插入历史活动表:S03T1_WF_Hist_Avy 。\nreturn\n\n现金管理 -&gt; 业务数据库 ++:更新流程实例表: so3t1_uf_process_inst。状态为完成\nreturn\n\n现金管理-&gt;业务数据库++:活动信息表:S03T1_WF_Pcs_Avy。\nreturn\n\n现金管理-&gt;业务数据库++:更新流程实例表: S03T1_WF_PROCESS_INST。\nreturn\n\n现金管理-&gt;现金管理\n现金管理-&gt;现金管理 ++: &lt;font color=red&gt;转账核心代码&lt;/font&gt;\nnote right of 现金管理\n通过ccommonwfAuditserviceImpl.java: 111里的代码\n做应用处理（可以起事务，也可以不起事务）。最后调到\nPubTransferApplyserviceImpl.java: 363做应用处理\n执行TranOrPayPcsServiceImpl#perPyTfrPcsCore代码进行转账处理\nend note\n\n现金管理-&gt;业务数据库++:更新业务流水表S65T1_0VS_RPBSN_JRNINF的信息（流水详细信息)\nreturn\n\n现金管理-&gt;业务数据库++:更新业务流水表S65T1_0VS_RPBSN_JRNINF的信息（流水详细信息)\nreturn\n\n现金管理-&gt;现金管理++:调用限额扣减相关逻辑\n\n现金管理-&gt;现金管理:根据汇率换算限额（按港币计算)\n\nnote right of 现金管理\n调用osTranOrPayServiceImpl#doNewTxOsPymtTfrPrePcs进行限额处理限额主要针对两张表进行处理\nS65T1_OVS_PY_PRSZ_STAT_INF-累计金额表S65T1_oVS_PY_PRSZ_INF-限额等级表\nend note\n\n现金管理-&gt;业务数据库++:更新累计额度-S65T1_OVS_PY_PRSZ_STAT_INF\nreturn\nreturn\n\n现金管理-&gt;业务数据库++:插入账务流水表-S0OT1_ACG_JRNINF\nreturn\n\n现金管理 -&gt; 业务数据库 ++:更新业务流水表S65T1_0VS_RPBSN_JRNINF的信息（时间，ip，状态)\nreturn\n\n现金管理-&gt;对公存款 ++:外呼A0181S706-对公活期存款支取-电子渠道接口进行账务处理\nreturn\n\n现金管理-&gt;业务数据库 ++:插入账务流水表-S00T1_ACG_JRNINF\nreturn\n\nreturn\n\n@enduml&quot;,&#xa;  &quot;format&quot;: &quot;svg&quot;&#xa;}" id="VFTzoZz6KF8qrf9NA7qc-89">
          <mxCell style="shape=image;noLabel=1;verticalAlign=top;aspect=fixed;imageAspect=0;image=data:image/svg+xml,PD94bWwgdmVyc2lvbj0iMS4wIiBlbmNvZGluZz0idXMtYXNjaWkiIHN0YW5kYWxvbmU9Im5vIj8+PHN2ZyB4bWxucz0iaHR0cDovL3d3dy53My5vcmcvMjAwMC9zdmciIHhtbG5zOnhsaW5rPSJodHRwOi8vd3d3LnczLm9yZy8xOTk5L3hsaW5rIiBjb250ZW50U3R5bGVUeXBlPSJ0ZXh0L2NzcyIgaGVpZ2h0PSIxNDg4cHgiIHByZXNlcnZlQXNwZWN0UmF0aW89Im5vbmUiIHN0eWxlPSJ3aWR0aDoxMDE5cHg7aGVpZ2h0OjE0ODhweDtiYWNrZ3JvdW5kOiNGRkZGRkY7IiB2ZXJzaW9uPSIxLjEiIHZpZXdCb3g9IjAgMCAxMDE5IDE0ODgiIHdpZHRoPSIxMDE5cHgiIHpvb21BbmRQYW49Im1hZ25pZnkiPjxkZWZzLz48Zz48cmVjdCBmaWxsPSIjRkZGRkZGIiBoZWlnaHQ9IjEyOTAuMTMyOCIgc3R5bGU9InN0cm9rZTojMTgxODE4O3N0cm9rZS13aWR0aDoxLjA7IiB3aWR0aD0iMTAiIHg9IjEzMCIgeT0iMTA5Ljg5ODQiLz48cmVjdCBmaWxsPSIjRkZGRkZGIiBoZWlnaHQ9IjEyNjIuMjE4OCIgc3R5bGU9InN0cm9rZTojMTgxODE4O3N0cm9rZS13aWR0aDoxLjA7IiB3aWR0aD0iMTAiIHg9IjM4MyIgeT0iMTM3LjgxMjUiLz48cmVjdCBmaWxsPSIjMDA1NTAwIiBoZWlnaHQ9IjExNTYuNTYyNSIgc3R5bGU9InN0cm9rZTojMTgxODE4O3N0cm9rZS13aWR0aDoxLjA7IiB3aWR0aD0iMTAiIHg9IjM4OCIgeT0iMjQzLjQ2ODgiLz48cmVjdCBmaWxsPSIjRkZGRkZGIiBoZWlnaHQ9IjY3NS45Mzc1IiBzdHlsZT0ic3Ryb2tlOiMxODE4MTg7c3Ryb2tlLXdpZHRoOjEuMDsiIHdpZHRoPSIxMCIgeD0iMzkzIiB5PSI3MDguMDkzOCIvPjxyZWN0IGZpbGw9IiNGRkZGRkYiIGhlaWdodD0iMTgzLjQ4NDQiIHN0eWxlPSJzdHJva2U6IzE4MTgxODtzdHJva2Utd2lkdGg6MS4wOyIgd2lkdGg9IjEwIiB4PSIzOTgiIHk9IjkzNi4zMjAzIi8+PHJlY3QgZmlsbD0iI0ZGRkZGRiIgaGVpZ2h0PSIyNy45MTQxIiBzdHlsZT0ic3Ryb2tlOiMxODE4MTg7c3Ryb2tlLXdpZHRoOjEuMDsiIHdpZHRoPSIxMCIgeD0iODMyIiB5PSIxNzkuNjQwNiIvPjxyZWN0IGZpbGw9IiNGRkZGRkYiIGhlaWdodD0iMjcuOTE0MSIgc3R5bGU9InN0cm9rZTojMTgxODE4O3N0cm9rZS13aWR0aDoxLjA7IiB3aWR0aD0iMTAiIHg9IjgzMiIgeT0iMzI0LjIxMDkiLz48cmVjdCBmaWxsPSIjRkZGRkZGIiBoZWlnaHQ9IjI3LjkxNDEiIHN0eWxlPSJzdHJva2U6IzE4MTgxODtzdHJva2Utd2lkdGg6MS4wOyIgd2lkdGg9IjEwIiB4PSI4MzIiIHk9IjM4MC4wMzkxIi8+PHJlY3QgZmlsbD0iI0ZGRkZGRiIgaGVpZ2h0PSIyNy45MTQxIiBzdHlsZT0ic3Ryb2tlOiMxODE4MTg7c3Ryb2tlLXdpZHRoOjEuMDsiIHdpZHRoPSIxMCIgeD0iODMyIiB5PSI0MzUuODY3MiIvPjxyZWN0IGZpbGw9IiNGRkZGRkYiIGhlaWdodD0iMjcuOTE0MSIgc3R5bGU9InN0cm9rZTojMTgxODE4O3N0cm9rZS13aWR0aDoxLjA7IiB3aWR0aD0iMTAiIHg9IjgzMiIgeT0iNDkxLjY5NTMiLz48cmVjdCBmaWxsPSIjRkZGRkZGIiBoZWlnaHQ9IjI3LjkxNDEiIHN0eWxlPSJzdHJva2U6IzE4MTgxODtzdHJva2Utd2lkdGg6MS4wOyIgd2lkdGg9IjEwIiB4PSI4MzIiIHk9IjU0Ny41MjM0Ii8+PHJlY3QgZmlsbD0iI0ZGRkZGRiIgaGVpZ2h0PSIyNy45MTQxIiBzdHlsZT0ic3Ryb2tlOiMxODE4MTg7c3Ryb2tlLXdpZHRoOjEuMDsiIHdpZHRoPSIxMCIgeD0iODMyIiB5PSI2MDMuMzUxNiIvPjxyZWN0IGZpbGw9IiNGRkZGRkYiIGhlaWdodD0iMjcuOTE0MSIgc3R5bGU9InN0cm9rZTojMTgxODE4O3N0cm9rZS13aWR0aDoxLjA7IiB3aWR0aD0iMTAiIHg9IjgzMiIgeT0iODE2LjY2NDEiLz48cmVjdCBmaWxsPSIjRkZGRkZGIiBoZWlnaHQ9IjI3LjkxNDEiIHN0eWxlPSJzdHJva2U6IzE4MTgxODtzdHJva2Utd2lkdGg6MS4wOyIgd2lkdGg9IjEwIiB4PSI4MzIiIHk9Ijg3Mi40OTIyIi8+PHJlY3QgZmlsbD0iI0ZGRkZGRiIgaGVpZ2h0PSIyNy45MTQxIiBzdHlsZT0ic3Ryb2tlOiMxODE4MTg7c3Ryb2tlLXdpZHRoOjEuMDsiIHdpZHRoPSIxMCIgeD0iODMyIiB5PSIxMDU3Ljk3NjYiLz48cmVjdCBmaWxsPSIjRkZGRkZGIiBoZWlnaHQ9IjI3LjkxNDEiIHN0eWxlPSJzdHJva2U6IzE4MTgxODtzdHJva2Utd2lkdGg6MS4wOyIgd2lkdGg9IjEwIiB4PSI4MzIiIHk9IjExNTQuNzE4OCIvPjxyZWN0IGZpbGw9IiNGRkZGRkYiIGhlaWdodD0iMjcuOTE0MSIgc3R5bGU9InN0cm9rZTojMTgxODE4O3N0cm9rZS13aWR0aDoxLjA7IiB3aWR0aD0iMTAiIHg9IjgzMiIgeT0iMTIxMC41NDY5Ii8+PHJlY3QgZmlsbD0iI0ZGRkZGRiIgaGVpZ2h0PSIyNy45MTQxIiBzdHlsZT0ic3Ryb2tlOiMxODE4MTg7c3Ryb2tlLXdpZHRoOjEuMDsiIHdpZHRoPSIxMCIgeD0iODMyIiB5PSIxMzIyLjIwMzEiLz48cmVjdCBmaWxsPSIjRkZGRkZGIiBoZWlnaHQ9IjI3LjkxNDEiIHN0eWxlPSJzdHJva2U6IzE4MTgxODtzdHJva2Utd2lkdGg6MS4wOyIgd2lkdGg9IjEwIiB4PSI5MTUiIHk9IjEyNjYuMzc1Ii8+PGxpbmUgc3R5bGU9InN0cm9rZTojMTgxODE4O3N0cm9rZS13aWR0aDowLjU7c3Ryb2tlLWRhc2hhcnJheTo1LjAsNS4wOyIgeDE9IjIyIiB4Mj0iMjIiIHkxPSI3OS45ODQ0IiB5Mj0iMTQwOS4wMzEzIi8+PGxpbmUgc3R5bGU9InN0cm9rZTojMTgxODE4O3N0cm9rZS13aWR0aDowLjU7c3Ryb2tlLWRhc2hhcnJheTo1LjAsNS4wOyIgeDE9IjEzNSIgeDI9IjEzNSIgeTE9Ijc5Ljk4NDQiIHkyPSIxNDA5LjAzMTMiLz48bGluZSBzdHlsZT0ic3Ryb2tlOiMxODE4MTg7c3Ryb2tlLXdpZHRoOjAuNTtzdHJva2UtZGFzaGFycmF5OjUuMCw1LjA7IiB4MT0iMzg4IiB4Mj0iMzg4IiB5MT0iNzkuOTg0NCIgeTI9IjE0MDkuMDMxMyIvPjxsaW5lIHN0eWxlPSJzdHJva2U6IzE4MTgxODtzdHJva2Utd2lkdGg6MC41O3N0cm9rZS1kYXNoYXJyYXk6NS4wLDUuMDsiIHgxPSI4MzciIHgyPSI4MzciIHkxPSI3OS45ODQ0IiB5Mj0iMTQwOS4wMzEzIi8+PGxpbmUgc3R5bGU9InN0cm9rZTojMTgxODE4O3N0cm9rZS13aWR0aDowLjU7c3Ryb2tlLWRhc2hhcnJheTo1LjAsNS4wOyIgeDE9IjkyMCIgeDI9IjkyMCIgeTE9Ijc5Ljk4NDQiIHkyPSIxNDA5LjAzMTMiLz48dGV4dCBmaWxsPSIjMDAwMDAwIiBmb250LWZhbWlseT0ic2Fucy1zZXJpZiIgZm9udC1zaXplPSIxNCIgbGVuZ3RoQWRqdXN0PSJzcGFjaW5nIiB0ZXh0TGVuZ3RoPSIyOCIgeD0iNSIgeT0iNzguMjM0NCI+JiMyOTk5MjsmIzI1MTQzOzwvdGV4dD48ZWxsaXBzZSBjeD0iMjIiIGN5PSIxMy41IiBmaWxsPSIjRTJFMkYwIiByeD0iOCIgcnk9IjgiIHN0eWxlPSJzdHJva2U6IzE4MTgxODtzdHJva2Utd2lkdGg6MC41OyIvPjxwYXRoIGQ9Ik0yMiwyMS41IEwyMiw0OC41IE05LDI5LjUgTDM1LDI5LjUgTTIyLDQ4LjUgTDksNjMuNSBNMjIsNDguNSBMMzUsNjMuNSAiIGZpbGw9Im5vbmUiIHN0eWxlPSJzdHJva2U6IzE4MTgxODtzdHJva2Utd2lkdGg6MC41OyIvPjx0ZXh0IGZpbGw9IiMwMDAwMDAiIGZvbnQtZmFtaWx5PSJzYW5zLXNlcmlmIiBmb250LXNpemU9IjE0IiBsZW5ndGhBZGp1c3Q9InNwYWNpbmciIHRleHRMZW5ndGg9IjI4IiB4PSI1IiB5PSIxNDIxLjI2NTYiPiYjMjk5OTI7JiMyNTE0Mzs8L3RleHQ+PGVsbGlwc2UgY3g9IjIyIiBjeT0iMTQzMS41MTU2IiBmaWxsPSIjRTJFMkYwIiByeD0iOCIgcnk9IjgiIHN0eWxlPSJzdHJva2U6IzE4MTgxODtzdHJva2Utd2lkdGg6MC41OyIvPjxwYXRoIGQ9Ik0yMiwxNDM5LjUxNTYgTDIyLDE0NjYuNTE1NiBNOSwxNDQ3LjUxNTYgTDM1LDE0NDcuNTE1NiBNMjIsMTQ2Ni41MTU2IEw5LDE0ODEuNTE1NiBNMjIsMTQ2Ni41MTU2IEwzNSwxNDgxLjUxNTYgIiBmaWxsPSJub25lIiBzdHlsZT0ic3Ryb2tlOiMxODE4MTg7c3Ryb2tlLXdpZHRoOjAuNTsiLz48cmVjdCBmaWxsPSIjRTJFMkYwIiBoZWlnaHQ9IjI4Ljk4NDQiIHJ4PSIyLjUiIHJ5PSIyLjUiIHN0eWxlPSJzdHJva2U6IzE4MTgxODtzdHJva2Utd2lkdGg6MC41OyIgd2lkdGg9IjQyIiB4PSIxMTQiIHk9IjUwIi8+PHRleHQgZmlsbD0iIzAwMDAwMCIgZm9udC1mYW1pbHk9InNhbnMtc2VyaWYiIGZvbnQtc2l6ZT0iMTQiIGxlbmd0aEFkanVzdD0ic3BhY2luZyIgdGV4dExlbmd0aD0iMjgiIHg9IjEyMSIgeT0iNzAuMjM0NCI+JiMzMjU5MzsmIzM4MTM0OzwvdGV4dD48cmVjdCBmaWxsPSIjRTJFMkYwIiBoZWlnaHQ9IjI4Ljk4NDQiIHJ4PSIyLjUiIHJ5PSIyLjUiIHN0eWxlPSJzdHJva2U6IzE4MTgxODtzdHJva2Utd2lkdGg6MC41OyIgd2lkdGg9IjQyIiB4PSIxMTQiIHk9IjE0MDguMDMxMyIvPjx0ZXh0IGZpbGw9IiMwMDAwMDAiIGZvbnQtZmFtaWx5PSJzYW5zLXNlcmlmIiBmb250LXNpemU9IjE0IiBsZW5ndGhBZGp1c3Q9InNwYWNpbmciIHRleHRMZW5ndGg9IjI4IiB4PSIxMjEiIHk9IjE0MjguMjY1NiI+JiMzMjU5MzsmIzM4MTM0OzwvdGV4dD48cmVjdCBmaWxsPSIjRTJFMkYwIiBoZWlnaHQ9IjI4Ljk4NDQiIHJ4PSIyLjUiIHJ5PSIyLjUiIHN0eWxlPSJzdHJva2U6IzE4MTgxODtzdHJva2Utd2lkdGg6MC41OyIgd2lkdGg9IjcwIiB4PSIzNTMiIHk9IjUwIi8+PHRleHQgZmlsbD0iIzAwMDAwMCIgZm9udC1mYW1pbHk9InNhbnMtc2VyaWYiIGZvbnQtc2l6ZT0iMTQiIGxlbmd0aEFkanVzdD0ic3BhY2luZyIgdGV4dExlbmd0aD0iNTYiIHg9IjM2MCIgeT0iNzAuMjM0NCI+JiMyOTYxNjsmIzM3MzI5OyYjMzE2NDk7JiMyOTcwMjs8L3RleHQ+PHJlY3QgZmlsbD0iI0UyRTJGMCIgaGVpZ2h0PSIyOC45ODQ0IiByeD0iMi41IiByeT0iMi41IiBzdHlsZT0ic3Ryb2tlOiMxODE4MTg7c3Ryb2tlLXdpZHRoOjAuNTsiIHdpZHRoPSI3MCIgeD0iMzUzIiB5PSIxNDA4LjAzMTMiLz48dGV4dCBmaWxsPSIjMDAwMDAwIiBmb250LWZhbWlseT0ic2Fucy1zZXJpZiIgZm9udC1zaXplPSIxNCIgbGVuZ3RoQWRqdXN0PSJzcGFjaW5nIiB0ZXh0TGVuZ3RoPSI1NiIgeD0iMzYwIiB5PSIxNDI4LjI2NTYiPiYjMjk2MTY7JiMzNzMyOTsmIzMxNjQ5OyYjMjk3MDI7PC90ZXh0Pjx0ZXh0IGZpbGw9IiMwMDAwMDAiIGZvbnQtZmFtaWx5PSJzYW5zLXNlcmlmIiBmb250LXNpemU9IjE0IiBsZW5ndGhBZGp1c3Q9InNwYWNpbmciIHRleHRMZW5ndGg9IjcwIiB4PSI3OTkiIHk9Ijc4LjIzNDQiPiYjMTk5OTQ7JiMyMTE1MzsmIzI1OTY4OyYjMjU0NTQ7JiMyNDIxMTs8L3RleHQ+PHBhdGggZD0iTTgxOSwyOSBDODE5LDE5IDgzNywxOSA4MzcsMTkgQzgzNywxOSA4NTUsMTkgODU1LDI5IEw4NTUsNTUgQzg1NSw2NSA4MzcsNjUgODM3LDY1IEM4MzcsNjUgODE5LDY1IDgxOSw1NSBMODE5LDI5ICIgZmlsbD0iI0UyRTJGMCIgc3R5bGU9InN0cm9rZTojMTgxODE4O3N0cm9rZS13aWR0aDoxLjU7Ii8+PHBhdGggZD0iTTgxOSwyOSBDODE5LDM5IDgzNywzOSA4MzcsMzkgQzgzNywzOSA4NTUsMzkgODU1LDI5ICIgZmlsbD0ibm9uZSIgc3R5bGU9InN0cm9rZTojMTgxODE4O3N0cm9rZS13aWR0aDoxLjU7Ii8+PHRleHQgZmlsbD0iIzAwMDAwMCIgZm9udC1mYW1pbHk9InNhbnMtc2VyaWYiIGZvbnQtc2l6ZT0iMTQiIGxlbmd0aEFkanVzdD0ic3BhY2luZyIgdGV4dExlbmd0aD0iNzAiIHg9Ijc5OSIgeT0iMTQyMS4yNjU2Ij4mIzE5OTk0OyYjMjExNTM7JiMyNTk2ODsmIzI1NDU0OyYjMjQyMTE7PC90ZXh0PjxwYXRoIGQ9Ik04MTksMTQzMy4wMTU2IEM4MTksMTQyMy4wMTU2IDgzNywxNDIzLjAxNTYgODM3LDE0MjMuMDE1NiBDODM3LDE0MjMuMDE1NiA4NTUsMTQyMy4wMTU2IDg1NSwxNDMzLjAxNTYgTDg1NSwxNDU5LjAxNTYgQzg1NSwxNDY5LjAxNTYgODM3LDE0NjkuMDE1NiA4MzcsMTQ2OS4wMTU2IEM4MzcsMTQ2OS4wMTU2IDgxOSwxNDY5LjAxNTYgODE5LDE0NTkuMDE1NiBMODE5LDE0MzMuMDE1NiAiIGZpbGw9IiNFMkUyRjAiIHN0eWxlPSJzdHJva2U6IzE4MTgxODtzdHJva2Utd2lkdGg6MS41OyIvPjxwYXRoIGQ9Ik04MTksMTQzMy4wMTU2IEM4MTksMTQ0My4wMTU2IDgzNywxNDQzLjAxNTYgODM3LDE0NDMuMDE1NiBDODM3LDE0NDMuMDE1NiA4NTUsMTQ0My4wMTU2IDg1NSwxNDMzLjAxNTYgIiBmaWxsPSJub25lIiBzdHlsZT0ic3Ryb2tlOiMxODE4MTg7c3Ryb2tlLXdpZHRoOjEuNTsiLz48cmVjdCBmaWxsPSIjRTJFMkYwIiBoZWlnaHQ9IjI4Ljk4NDQiIHJ4PSIyLjUiIHJ5PSIyLjUiIHN0eWxlPSJzdHJva2U6IzE4MTgxODtzdHJva2Utd2lkdGg6MC41OyIgd2lkdGg9IjcwIiB4PSI4ODUiIHk9IjUwIi8+PHRleHQgZmlsbD0iIzAwMDAwMCIgZm9udC1mYW1pbHk9InNhbnMtc2VyaWYiIGZvbnQtc2l6ZT0iMTQiIGxlbmd0aEFkanVzdD0ic3BhY2luZyIgdGV4dExlbmd0aD0iNTYiIHg9Ijg5MiIgeT0iNzAuMjM0NCI+JiMyMzU0NTsmIzIwODQ0OyYjMjMzODQ7JiMyNzQ1NDs8L3RleHQ+PHJlY3QgZmlsbD0iI0UyRTJGMCIgaGVpZ2h0PSIyOC45ODQ0IiByeD0iMi41IiByeT0iMi41IiBzdHlsZT0ic3Ryb2tlOiMxODE4MTg7c3Ryb2tlLXdpZHRoOjAuNTsiIHdpZHRoPSI3MCIgeD0iODg1IiB5PSIxNDA4LjAzMTMiLz48dGV4dCBmaWxsPSIjMDAwMDAwIiBmb250LWZhbWlseT0ic2Fucy1zZXJpZiIgZm9udC1zaXplPSIxNCIgbGVuZ3RoQWRqdXN0PSJzcGFjaW5nIiB0ZXh0TGVuZ3RoPSI1NiIgeD0iODkyIiB5PSIxNDI4LjI2NTYiPiYjMjM1NDU7JiMyMDg0NDsmIzIzMzg0OyYjMjc0NTQ7PC90ZXh0PjxyZWN0IGZpbGw9IiNGRkZGRkYiIGhlaWdodD0iMTI5MC4xMzI4IiBzdHlsZT0ic3Ryb2tlOiMxODE4MTg7c3Ryb2tlLXdpZHRoOjEuMDsiIHdpZHRoPSIxMCIgeD0iMTMwIiB5PSIxMDkuODk4NCIvPjxyZWN0IGZpbGw9IiNGRkZGRkYiIGhlaWdodD0iMTI2Mi4yMTg4IiBzdHlsZT0ic3Ryb2tlOiMxODE4MTg7c3Ryb2tlLXdpZHRoOjEuMDsiIHdpZHRoPSIxMCIgeD0iMzgzIiB5PSIxMzcuODEyNSIvPjxyZWN0IGZpbGw9IiMwMDU1MDAiIGhlaWdodD0iMTE1Ni41NjI1IiBzdHlsZT0ic3Ryb2tlOiMxODE4MTg7c3Ryb2tlLXdpZHRoOjEuMDsiIHdpZHRoPSIxMCIgeD0iMzg4IiB5PSIyNDMuNDY4OCIvPjxyZWN0IGZpbGw9IiNGRkZGRkYiIGhlaWdodD0iNjc1LjkzNzUiIHN0eWxlPSJzdHJva2U6IzE4MTgxODtzdHJva2Utd2lkdGg6MS4wOyIgd2lkdGg9IjEwIiB4PSIzOTMiIHk9IjcwOC4wOTM4Ii8+PHJlY3QgZmlsbD0iI0ZGRkZGRiIgaGVpZ2h0PSIxODMuNDg0NCIgc3R5bGU9InN0cm9rZTojMTgxODE4O3N0cm9rZS13aWR0aDoxLjA7IiB3aWR0aD0iMTAiIHg9IjM5OCIgeT0iOTM2LjMyMDMiLz48cmVjdCBmaWxsPSIjRkZGRkZGIiBoZWlnaHQ9IjI3LjkxNDEiIHN0eWxlPSJzdHJva2U6IzE4MTgxODtzdHJva2Utd2lkdGg6MS4wOyIgd2lkdGg9IjEwIiB4PSI4MzIiIHk9IjE3OS42NDA2Ii8+PHJlY3QgZmlsbD0iI0ZGRkZGRiIgaGVpZ2h0PSIyNy45MTQxIiBzdHlsZT0ic3Ryb2tlOiMxODE4MTg7c3Ryb2tlLXdpZHRoOjEuMDsiIHdpZHRoPSIxMCIgeD0iODMyIiB5PSIzMjQuMjEwOSIvPjxyZWN0IGZpbGw9IiNGRkZGRkYiIGhlaWdodD0iMjcuOTE0MSIgc3R5bGU9InN0cm9rZTojMTgxODE4O3N0cm9rZS13aWR0aDoxLjA7IiB3aWR0aD0iMTAiIHg9IjgzMiIgeT0iMzgwLjAzOTEiLz48cmVjdCBmaWxsPSIjRkZGRkZGIiBoZWlnaHQ9IjI3LjkxNDEiIHN0eWxlPSJzdHJva2U6IzE4MTgxODtzdHJva2Utd2lkdGg6MS4wOyIgd2lkdGg9IjEwIiB4PSI4MzIiIHk9IjQzNS44NjcyIi8+PHJlY3QgZmlsbD0iI0ZGRkZGRiIgaGVpZ2h0PSIyNy45MTQxIiBzdHlsZT0ic3Ryb2tlOiMxODE4MTg7c3Ryb2tlLXdpZHRoOjEuMDsiIHdpZHRoPSIxMCIgeD0iODMyIiB5PSI0OTEuNjk1MyIvPjxyZWN0IGZpbGw9IiNGRkZGRkYiIGhlaWdodD0iMjcuOTE0MSIgc3R5bGU9InN0cm9rZTojMTgxODE4O3N0cm9rZS13aWR0aDoxLjA7IiB3aWR0aD0iMTAiIHg9IjgzMiIgeT0iNTQ3LjUyMzQiLz48cmVjdCBmaWxsPSIjRkZGRkZGIiBoZWlnaHQ9IjI3LjkxNDEiIHN0eWxlPSJzdHJva2U6IzE4MTgxODtzdHJva2Utd2lkdGg6MS4wOyIgd2lkdGg9IjEwIiB4PSI4MzIiIHk9IjYwMy4zNTE2Ii8+PHJlY3QgZmlsbD0iI0ZGRkZGRiIgaGVpZ2h0PSIyNy45MTQxIiBzdHlsZT0ic3Ryb2tlOiMxODE4MTg7c3Ryb2tlLXdpZHRoOjEuMDsiIHdpZHRoPSIxMCIgeD0iODMyIiB5PSI4MTYuNjY0MSIvPjxyZWN0IGZpbGw9IiNGRkZGRkYiIGhlaWdodD0iMjcuOTE0MSIgc3R5bGU9InN0cm9rZTojMTgxODE4O3N0cm9rZS13aWR0aDoxLjA7IiB3aWR0aD0iMTAiIHg9IjgzMiIgeT0iODcyLjQ5MjIiLz48cmVjdCBmaWxsPSIjRkZGRkZGIiBoZWlnaHQ9IjI3LjkxNDEiIHN0eWxlPSJzdHJva2U6IzE4MTgxODtzdHJva2Utd2lkdGg6MS4wOyIgd2lkdGg9IjEwIiB4PSI4MzIiIHk9IjEwNTcuOTc2NiIvPjxyZWN0IGZpbGw9IiNGRkZGRkYiIGhlaWdodD0iMjcuOTE0MSIgc3R5bGU9InN0cm9rZTojMTgxODE4O3N0cm9rZS13aWR0aDoxLjA7IiB3aWR0aD0iMTAiIHg9IjgzMiIgeT0iMTE1NC43MTg4Ii8+PHJlY3QgZmlsbD0iI0ZGRkZGRiIgaGVpZ2h0PSIyNy45MTQxIiBzdHlsZT0ic3Ryb2tlOiMxODE4MTg7c3Ryb2tlLXdpZHRoOjEuMDsiIHdpZHRoPSIxMCIgeD0iODMyIiB5PSIxMjEwLjU0NjkiLz48cmVjdCBmaWxsPSIjRkZGRkZGIiBoZWlnaHQ9IjI3LjkxNDEiIHN0eWxlPSJzdHJva2U6IzE4MTgxODtzdHJva2Utd2lkdGg6MS4wOyIgd2lkdGg9IjEwIiB4PSI4MzIiIHk9IjEzMjIuMjAzMSIvPjxyZWN0IGZpbGw9IiNGRkZGRkYiIGhlaWdodD0iMjcuOTE0MSIgc3R5bGU9InN0cm9rZTojMTgxODE4O3N0cm9rZS13aWR0aDoxLjA7IiB3aWR0aD0iMTAiIHg9IjkxNSIgeT0iMTI2Ni4zNzUiLz48cG9seWdvbiBmaWxsPSIjMTgxODE4IiBwb2ludHM9IjExOCwxMDUuODk4NCwxMjgsMTA5Ljg5ODQsMTE4LDExMy44OTg0LDEyMiwxMDkuODk4NCIgc3R5bGU9InN0cm9rZTojMTgxODE4O3N0cm9rZS13aWR0aDoxLjA7Ii8+PGxpbmUgc3R5bGU9InN0cm9rZTojMTgxODE4O3N0cm9rZS13aWR0aDoxLjA7IiB4MT0iMjIiIHgyPSIxMjQiIHkxPSIxMDkuODk4NCIgeTI9IjEwOS44OTg0Ii8+PHRleHQgZmlsbD0iIzAwMDAwMCIgZm9udC1mYW1pbHk9InNhbnMtc2VyaWYiIGZvbnQtc2l6ZT0iMTMiIGZvbnQtd2VpZ2h0PSJib2xkIiBsZW5ndGhBZGp1c3Q9InNwYWNpbmciIHRleHRMZW5ndGg9IjciIHg9IjI5IiB5PSIxMDYuMjczNCI+MTwvdGV4dD48dGV4dCBmaWxsPSIjMDAwMDAwIiBmb250LWZhbWlseT0ic2Fucy1zZXJpZiIgZm9udC1zaXplPSIxMyIgbGVuZ3RoQWRqdXN0PSJzcGFjaW5nIiB0ZXh0TGVuZ3RoPSI3OCIgeD0iNDAiIHk9IjEwNi4yNzM0Ij4mIzI1NTUyOyYjMjAxMzI7JiMyMTA0NjsmIzIxMzMzOyYjMjI3OTc7JiMyNjY4MDs8L3RleHQ+PHBvbHlnb24gZmlsbD0iIzE4MTgxOCIgcG9pbnRzPSIzNzEsMTMzLjgxMjUsMzgxLDEzNy44MTI1LDM3MSwxNDEuODEyNSwzNzUsMTM3LjgxMjUiIHN0eWxlPSJzdHJva2U6IzE4MTgxODtzdHJva2Utd2lkdGg6MS4wOyIvPjxsaW5lIHN0eWxlPSJzdHJva2U6IzE4MTgxODtzdHJva2Utd2lkdGg6MS4wOyIgeDE9IjE0MCIgeDI9IjM3NyIgeTE9IjEzNy44MTI1IiB5Mj0iMTM3LjgxMjUiLz48dGV4dCBmaWxsPSIjMDAwMDAwIiBmb250LWZhbWlseT0ic2Fucy1zZXJpZiIgZm9udC1zaXplPSIxMyIgZm9udC13ZWlnaHQ9ImJvbGQiIGxlbmd0aEFkanVzdD0ic3BhY2luZyIgdGV4dExlbmd0aD0iNyIgeD0iMTQ3IiB5PSIxMzQuMTg3NSI+MjwvdGV4dD48dGV4dCBmaWxsPSIjMDAwMDAwIiBmb250LWZhbWlseT0ic2Fucy1zZXJpZiIgZm9udC1zaXplPSIxMyIgbGVuZ3RoQWRqdXN0PSJzcGFjaW5nIiB0ZXh0TGVuZ3RoPSIyMTMiIHg9IjE1OCIgeT0iMTM0LjE4NzUiPiYjMzU4NDM7JiMyOTk5MjtBMDU4MTY1MDMtJiMyODAyMzsmIzIyODA2OyYjMzY3MTY7JiMzNjEzNDsmIzIxNDUwOyYjMjc3MTk7JiMyNzQ1NDsmIzIyNzk3OyYjMjY2ODA7PC90ZXh0Pjxwb2x5Z29uIGZpbGw9IiMxODE4MTgiIHBvaW50cz0iODIwLDE3NS42NDA2LDgzMCwxNzkuNjQwNiw4MjAsMTgzLjY0MDYsODI0LDE3OS42NDA2IiBzdHlsZT0ic3Ryb2tlOiMxODE4MTg7c3Ryb2tlLXdpZHRoOjEuMDsiLz48bGluZSBzdHlsZT0ic3Ryb2tlOiMxODE4MTg7c3Ryb2tlLXdpZHRoOjEuMDsiIHgxPSIzOTMiIHgyPSI4MjYiIHkxPSIxNzkuNjQwNiIgeTI9IjE3OS42NDA2Ii8+PHRleHQgZmlsbD0iIzAwMDAwMCIgZm9udC1mYW1pbHk9InNhbnMtc2VyaWYiIGZvbnQtc2l6ZT0iMTMiIGZvbnQtd2VpZ2h0PSJib2xkIiBsZW5ndGhBZGp1c3Q9InNwYWNpbmciIHRleHRMZW5ndGg9IjciIHg9IjQwMCIgeT0iMTY5LjA1ODYiPjM8L3RleHQ+PHRleHQgZmlsbD0iIzAwMDAwMCIgZm9udC1mYW1pbHk9InNhbnMtc2VyaWYiIGZvbnQtc2l6ZT0iMTMiIGxlbmd0aEFkanVzdD0ic3BhY2luZyIgdGV4dExlbmd0aD0iMjIxIiB4PSI0MTEiIHk9IjE2Mi4xMDE2Ij4mIzI1NTU0OyYjMjA4Mzc7czE5dDFfdHhuX3N2Y19qcm5sLSYjMjAxMzI7JiMyNjEzMTsmIzI3OTY5OyYjMjc3MDA7JiMzNDkyMDs8L3RleHQ+PHRleHQgZmlsbD0iIzAwMDAwMCIgZm9udC1mYW1pbHk9InNhbnMtc2VyaWYiIGZvbnQtc2l6ZT0iMTMiIGxlbmd0aEFkanVzdD0ic3BhY2luZyIgdGV4dExlbmd0aD0iMTEyIiB4PSI0MTEiIHk9IjE3Ni4wMTU2Ij4mIzM1ODEzOyYjMzQ5MjA7JiMyMDI1MDsmIzM1NzYwOyYjMjQ0MDU7dHJhY2VpZDwvdGV4dD48cG9seWdvbiBmaWxsPSIjMTgxODE4IiBwb2ludHM9IjQwNCwyMDMuNTU0NywzOTQsMjA3LjU1NDcsNDA0LDIxMS41NTQ3LDQwMCwyMDcuNTU0NyIgc3R5bGU9InN0cm9rZTojMTgxODE4O3N0cm9rZS13aWR0aDoxLjA7Ii8+PGxpbmUgc3R5bGU9InN0cm9rZTojMTgxODE4O3N0cm9rZS13aWR0aDoxLjA7c3Ryb2tlLWRhc2hhcnJheToyLjAsMi4wOyIgeDE9IjM5OCIgeDI9IjgzNiIgeTE9IjIwNy41NTQ3IiB5Mj0iMjA3LjU1NDciLz48dGV4dCBmaWxsPSIjMDAwMDAwIiBmb250LWZhbWlseT0ic2Fucy1zZXJpZiIgZm9udC1zaXplPSIxMyIgZm9udC13ZWlnaHQ9ImJvbGQiIGxlbmd0aEFkanVzdD0ic3BhY2luZyIgdGV4dExlbmd0aD0iNyIgeD0iNDEwIiB5PSIyMDMuOTI5NyI+NDwvdGV4dD48dGV4dCBmaWxsPSIjMDAwMDAwIiBmb250LWZhbWlseT0ic2Fucy1zZXJpZiIgZm9udC1zaXplPSIxMyIgbGVuZ3RoQWRqdXN0PSJzcGFjaW5nIiB0ZXh0TGVuZ3RoPSI3IiB4PSI0MjEiIHk9IjIwMy45Mjk3Ij4mIzE2MDs8L3RleHQ+PGxpbmUgc3R5bGU9InN0cm9rZTojMTgxODE4O3N0cm9rZS13aWR0aDoxLjA7IiB4MT0iMzkzIiB4Mj0iNDQwIiB5MT0iMjMwLjQ2ODgiIHkyPSIyMzAuNDY4OCIvPjxsaW5lIHN0eWxlPSJzdHJva2U6IzE4MTgxODtzdHJva2Utd2lkdGg6MS4wOyIgeDE9IjQ0MCIgeDI9IjQ0MCIgeTE9IjIzMC40Njg4IiB5Mj0iMjQzLjQ2ODgiLz48bGluZSBzdHlsZT0ic3Ryb2tlOiMxODE4MTg7c3Ryb2tlLXdpZHRoOjEuMDsiIHgxPSIzOTkiIHgyPSI0NDAiIHkxPSIyNDMuNDY4OCIgeTI9IjI0My40Njg4Ii8+PHBvbHlnb24gZmlsbD0iIzE4MTgxOCIgcG9pbnRzPSI0MDksMjM5LjQ2ODgsMzk5LDI0My40Njg4LDQwOSwyNDcuNDY4OCw0MDUsMjQzLjQ2ODgiIHN0eWxlPSJzdHJva2U6IzE4MTgxODtzdHJva2Utd2lkdGg6MS4wOyIvPjx0ZXh0IGZpbGw9IiMwMDAwMDAiIGZvbnQtZmFtaWx5PSJzYW5zLXNlcmlmIiBmb250LXNpemU9IjEzIiBmb250LXdlaWdodD0iYm9sZCIgbGVuZ3RoQWRqdXN0PSJzcGFjaW5nIiB0ZXh0TGVuZ3RoPSI3IiB4PSI0MDUiIHk9IjIyNi44NDM4Ij41PC90ZXh0Pjx0ZXh0IGZpbGw9IiNGRjAwMDAiIGZvbnQtZmFtaWx5PSJzYW5zLXNlcmlmIiBmb250LXNpemU9IjEzIiBsZW5ndGhBZGp1c3Q9InNwYWNpbmciIHRleHRMZW5ndGg9Ijk5IiB4PSI0MTYiIHk9IjIyNi44NDM4Ij4mIzM1ODQzOyYjMjk5OTI7JiMyMzU0NTsmIzIwODQ0OyYjMjc5Njk7JiMzMTI0MztzZGs8L3RleHQ+PHBhdGggZD0iTTQwMywyNjEuNDY4OCBMNDAzLDI5OC40Njg4IEw2MTQsMjk4LjQ2ODggTDYxNCwyNzEuNDY4OCBMNjA0LDI2MS40Njg4IEw0MDMsMjYxLjQ2ODggIiBmaWxsPSIjRkVGRkREIiBzdHlsZT0ic3Ryb2tlOiMxODE4MTg7c3Ryb2tlLXdpZHRoOjAuNTsiLz48cGF0aCBkPSJNNjA0LDI2MS40Njg4IEw2MDQsMjcxLjQ2ODggTDYxNCwyNzEuNDY4OCBMNjA0LDI2MS40Njg4ICIgZmlsbD0iI0ZFRkZERCIgc3R5bGU9InN0cm9rZTojMTgxODE4O3N0cm9rZS13aWR0aDowLjU7Ii8+PHRleHQgZmlsbD0iIzAwMDAwMCIgZm9udC1mYW1pbHk9InNhbnMtc2VyaWYiIGZvbnQtc2l6ZT0iMTMiIGxlbmd0aEFkanVzdD0ic3BhY2luZyIgdGV4dExlbmd0aD0iMTU4IiB4PSI0MDkiIHk9IjI3OC43NTc4Ij4mIzM1ODQzOyYjMjk5OTI7JiMyMzU0NTsmIzIwODQ0OyYjMjc5Njk7JiMzMTI0Mztjb20uY2NiLmRnbGM8L3RleHQ+PHRleHQgZmlsbD0iIzAwMDAwMCIgZm9udC1mYW1pbHk9InNhbnMtc2VyaWYiIGZvbnQtc2l6ZT0iMTMiIGxlbmd0aEFkanVzdD0ic3BhY2luZyIgdGV4dExlbmd0aD0iMTkwIiB4PSI0MDkiIHk9IjI5Mi42NzE5Ij4mIzI1NTUyOyYjMjAzNzk7JiMzMDM0MDsmIzMwNDU2OyYjMjA4NTE7c2RrJiMzNjgyNzsmIzM0ODkyOyYjMjQwMzc7JiMyMDMxNjsmIzI3OTY5OyYjMzAzNDA7JiMyMjc4ODsmIzI5NzAyOzwvdGV4dD48cG9seWdvbiBmaWxsPSIjMTgxODE4IiBwb2ludHM9IjgyMCwzMjAuMjEwOSw4MzAsMzI0LjIxMDksODIwLDMyOC4yMTA5LDgyNCwzMjQuMjEwOSIgc3R5bGU9InN0cm9rZTojMTgxODE4O3N0cm9rZS13aWR0aDoxLjA7Ii8+PGxpbmUgc3R5bGU9InN0cm9rZTojMTgxODE4O3N0cm9rZS13aWR0aDoxLjA7IiB4MT0iMzk4IiB4Mj0iODI2IiB5MT0iMzI0LjIxMDkiIHkyPSIzMjQuMjEwOSIvPjx0ZXh0IGZpbGw9IiMwMDAwMDAiIGZvbnQtZmFtaWx5PSJzYW5zLXNlcmlmIiBmb250LXNpemU9IjEzIiBmb250LXdlaWdodD0iYm9sZCIgbGVuZ3RoQWRqdXN0PSJzcGFjaW5nIiB0ZXh0TGVuZ3RoPSI3IiB4PSI0MDUiIHk9IjMyMC41ODU5Ij42PC90ZXh0Pjx0ZXh0IGZpbGw9IiMwMDAwMDAiIGZvbnQtZmFtaWx5PSJzYW5zLXNlcmlmIiBmb250LXNpemU9IjEzIiBsZW5ndGhBZGp1c3Q9InNwYWNpbmciIHRleHRMZW5ndGg9IjIyMSIgeD0iNDE2IiB5PSIzMjAuNTg1OSI+JiMyNjM1NjsmIzI2MDMyOyYjMjc5NjM7JiMyMTE2MDsmIzIwNDQ5OyYjMjQ2ODc7JiMzNDkyMDs6UzAzVDFfV0ZfUGNzX0F2eSYjMTIyOTA7PC90ZXh0Pjxwb2x5Z29uIGZpbGw9IiMxODE4MTgiIHBvaW50cz0iNDA5LDM0OC4xMjUsMzk5LDM1Mi4xMjUsNDA5LDM1Ni4xMjUsNDA1LDM1Mi4xMjUiIHN0eWxlPSJzdHJva2U6IzE4MTgxODtzdHJva2Utd2lkdGg6MS4wOyIvPjxsaW5lIHN0eWxlPSJzdHJva2U6IzE4MTgxODtzdHJva2Utd2lkdGg6MS4wO3N0cm9rZS1kYXNoYXJyYXk6Mi4wLDIuMDsiIHgxPSI0MDMiIHgyPSI4MzYiIHkxPSIzNTIuMTI1IiB5Mj0iMzUyLjEyNSIvPjx0ZXh0IGZpbGw9IiMwMDAwMDAiIGZvbnQtZmFtaWx5PSJzYW5zLXNlcmlmIiBmb250LXNpemU9IjEzIiBmb250LXdlaWdodD0iYm9sZCIgbGVuZ3RoQWRqdXN0PSJzcGFjaW5nIiB0ZXh0TGVuZ3RoPSI3IiB4PSI0MTUiIHk9IjM0OC41Ij43PC90ZXh0Pjx0ZXh0IGZpbGw9IiMwMDAwMDAiIGZvbnQtZmFtaWx5PSJzYW5zLXNlcmlmIiBmb250LXNpemU9IjEzIiBsZW5ndGhBZGp1c3Q9InNwYWNpbmciIHRleHRMZW5ndGg9IjciIHg9IjQyNiIgeT0iMzQ4LjUiPiYjMTYwOzwvdGV4dD48cG9seWdvbiBmaWxsPSIjMTgxODE4IiBwb2ludHM9IjgyMCwzNzYuMDM5MSw4MzAsMzgwLjAzOTEsODIwLDM4NC4wMzkxLDgyNCwzODAuMDM5MSIgc3R5bGU9InN0cm9rZTojMTgxODE4O3N0cm9rZS13aWR0aDoxLjA7Ii8+PGxpbmUgc3R5bGU9InN0cm9rZTojMTgxODE4O3N0cm9rZS13aWR0aDoxLjA7IiB4MT0iMzk4IiB4Mj0iODI2IiB5MT0iMzgwLjAzOTEiIHkyPSIzODAuMDM5MSIvPjx0ZXh0IGZpbGw9IiMwMDAwMDAiIGZvbnQtZmFtaWx5PSJzYW5zLXNlcmlmIiBmb250LXNpemU9IjEzIiBmb250LXdlaWdodD0iYm9sZCIgbGVuZ3RoQWRqdXN0PSJzcGFjaW5nIiB0ZXh0TGVuZ3RoPSI3IiB4PSI0MDUiIHk9IjM3Ni40MTQxIj44PC90ZXh0Pjx0ZXh0IGZpbGw9IiMwMDAwMDAiIGZvbnQtZmFtaWx5PSJzYW5zLXNlcmlmIiBmb250LXNpemU9IjEzIiBsZW5ndGhBZGp1c3Q9InNwYWNpbmciIHRleHRMZW5ndGg9IjMwNyIgeD0iNDE2IiB5PSIzNzYuNDE0MSI+JiMyNjM1NjsmIzI2MDMyOyYjMjAxOTU7JiMyMTE1MDsmIzM0OTIwOzpTMDNUMV9XRl9Ub2RvX1Bjc19BdnlfSW5mJiMxMjI5MDsmIzM4MTQ1OyYjMjM0NTA7JiMzNTc2MDsmIzI0NDA1OzwvdGV4dD48cG9seWdvbiBmaWxsPSIjMTgxODE4IiBwb2ludHM9IjQwOSw0MDMuOTUzMSwzOTksNDA3Ljk1MzEsNDA5LDQxMS45NTMxLDQwNSw0MDcuOTUzMSIgc3R5bGU9InN0cm9rZTojMTgxODE4O3N0cm9rZS13aWR0aDoxLjA7Ii8+PGxpbmUgc3R5bGU9InN0cm9rZTojMTgxODE4O3N0cm9rZS13aWR0aDoxLjA7c3Ryb2tlLWRhc2hhcnJheToyLjAsMi4wOyIgeDE9IjQwMyIgeDI9IjgzNiIgeTE9IjQwNy45NTMxIiB5Mj0iNDA3Ljk1MzEiLz48dGV4dCBmaWxsPSIjMDAwMDAwIiBmb250LWZhbWlseT0ic2Fucy1zZXJpZiIgZm9udC1zaXplPSIxMyIgZm9udC13ZWlnaHQ9ImJvbGQiIGxlbmd0aEFkanVzdD0ic3BhY2luZyIgdGV4dExlbmd0aD0iNyIgeD0iNDE1IiB5PSI0MDQuMzI4MSI+OTwvdGV4dD48dGV4dCBmaWxsPSIjMDAwMDAwIiBmb250LWZhbWlseT0ic2Fucy1zZXJpZiIgZm9udC1zaXplPSIxMyIgbGVuZ3RoQWRqdXN0PSJzcGFjaW5nIiB0ZXh0TGVuZ3RoPSI3IiB4PSI0MjYiIHk9IjQwNC4zMjgxIj4mIzE2MDs8L3RleHQ+PHBvbHlnb24gZmlsbD0iIzE4MTgxOCIgcG9pbnRzPSI4MjAsNDMxLjg2NzIsODMwLDQzNS44NjcyLDgyMCw0MzkuODY3Miw4MjQsNDM1Ljg2NzIiIHN0eWxlPSJzdHJva2U6IzE4MTgxODtzdHJva2Utd2lkdGg6MS4wOyIvPjxsaW5lIHN0eWxlPSJzdHJva2U6IzE4MTgxODtzdHJva2Utd2lkdGg6MS4wOyIgeDE9IjM5OCIgeDI9IjgyNiIgeTE9IjQzNS44NjcyIiB5Mj0iNDM1Ljg2NzIiLz48dGV4dCBmaWxsPSIjMDAwMDAwIiBmb250LWZhbWlseT0ic2Fucy1zZXJpZiIgZm9udC1zaXplPSIxMyIgZm9udC13ZWlnaHQ9ImJvbGQiIGxlbmd0aEFkanVzdD0ic3BhY2luZyIgdGV4dExlbmd0aD0iMTQiIHg9IjQwNSIgeT0iNDMyLjI0MjIiPjEwPC90ZXh0Pjx0ZXh0IGZpbGw9IiMwMDAwMDAiIGZvbnQtZmFtaWx5PSJzYW5zLXNlcmlmIiBmb250LXNpemU9IjEzIiBsZW5ndGhBZGp1c3Q9InNwYWNpbmciIHRleHRMZW5ndGg9IjIzMyIgeD0iNDIzIiB5PSI0MzIuMjQyMiI+JiMyNTU1NDsmIzIwODM3OyYjMjEzODI7JiMyMTQ5MDsmIzI3OTYzOyYjMjExNjA7JiMzNDkyMDs6UzAzVDFfV0ZfSGlzdF9BdnkgJiMxMjI5MDs8L3RleHQ+PHBvbHlnb24gZmlsbD0iIzE4MTgxOCIgcG9pbnRzPSI0MDksNDU5Ljc4MTMsMzk5LDQ2My43ODEzLDQwOSw0NjcuNzgxMyw0MDUsNDYzLjc4MTMiIHN0eWxlPSJzdHJva2U6IzE4MTgxODtzdHJva2Utd2lkdGg6MS4wOyIvPjxsaW5lIHN0eWxlPSJzdHJva2U6IzE4MTgxODtzdHJva2Utd2lkdGg6MS4wO3N0cm9rZS1kYXNoYXJyYXk6Mi4wLDIuMDsiIHgxPSI0MDMiIHgyPSI4MzYiIHkxPSI0NjMuNzgxMyIgeTI9IjQ2My43ODEzIi8+PHRleHQgZmlsbD0iIzAwMDAwMCIgZm9udC1mYW1pbHk9InNhbnMtc2VyaWYiIGZvbnQtc2l6ZT0iMTMiIGZvbnQtd2VpZ2h0PSJib2xkIiBsZW5ndGhBZGp1c3Q9InNwYWNpbmciIHRleHRMZW5ndGg9IjE0IiB4PSI0MTUiIHk9IjQ2MC4xNTYzIj4xMTwvdGV4dD48dGV4dCBmaWxsPSIjMDAwMDAwIiBmb250LWZhbWlseT0ic2Fucy1zZXJpZiIgZm9udC1zaXplPSIxMyIgbGVuZ3RoQWRqdXN0PSJzcGFjaW5nIiB0ZXh0TGVuZ3RoPSI3IiB4PSI0MzMiIHk9IjQ2MC4xNTYzIj4mIzE2MDs8L3RleHQ+PHBvbHlnb24gZmlsbD0iIzE4MTgxOCIgcG9pbnRzPSI4MjAsNDg3LjY5NTMsODMwLDQ5MS42OTUzLDgyMCw0OTUuNjk1Myw4MjQsNDkxLjY5NTMiIHN0eWxlPSJzdHJva2U6IzE4MTgxODtzdHJva2Utd2lkdGg6MS4wOyIvPjxsaW5lIHN0eWxlPSJzdHJva2U6IzE4MTgxODtzdHJva2Utd2lkdGg6MS4wOyIgeDE9IjM5OCIgeDI9IjgyNiIgeTE9IjQ5MS42OTUzIiB5Mj0iNDkxLjY5NTMiLz48dGV4dCBmaWxsPSIjMDAwMDAwIiBmb250LWZhbWlseT0ic2Fucy1zZXJpZiIgZm9udC1zaXplPSIxMyIgZm9udC13ZWlnaHQ9ImJvbGQiIGxlbmd0aEFkanVzdD0ic3BhY2luZyIgdGV4dExlbmd0aD0iMTQiIHg9IjQwNSIgeT0iNDg4LjA3MDMiPjEyPC90ZXh0Pjx0ZXh0IGZpbGw9IiMwMDAwMDAiIGZvbnQtZmFtaWx5PSJzYW5zLXNlcmlmIiBmb250LXNpemU9IjEzIiBsZW5ndGhBZGp1c3Q9InNwYWNpbmciIHRleHRMZW5ndGg9IjMyNSIgeD0iNDIzIiB5PSI0ODguMDcwMyI+JiMyNjM1NjsmIzI2MDMyOyYjMjc5Njk7JiMzMTI0MzsmIzIzNDU0OyYjMjAzNjM7JiMzNDkyMDs6IHNvM3QxX3VmX3Byb2Nlc3NfaW5zdCYjMTIyOTA7JiMyOTM2NjsmIzI0NTc3OyYjMjAwMjY7JiMyMzQzNjsmIzI1MTA0OzwvdGV4dD48cG9seWdvbiBmaWxsPSIjMTgxODE4IiBwb2ludHM9IjQwOSw1MTUuNjA5NCwzOTksNTE5LjYwOTQsNDA5LDUyMy42MDk0LDQwNSw1MTkuNjA5NCIgc3R5bGU9InN0cm9rZTojMTgxODE4O3N0cm9rZS13aWR0aDoxLjA7Ii8+PGxpbmUgc3R5bGU9InN0cm9rZTojMTgxODE4O3N0cm9rZS13aWR0aDoxLjA7c3Ryb2tlLWRhc2hhcnJheToyLjAsMi4wOyIgeDE9IjQwMyIgeDI9IjgzNiIgeTE9IjUxOS42MDk0IiB5Mj0iNTE5LjYwOTQiLz48dGV4dCBmaWxsPSIjMDAwMDAwIiBmb250LWZhbWlseT0ic2Fucy1zZXJpZiIgZm9udC1zaXplPSIxMyIgZm9udC13ZWlnaHQ9ImJvbGQiIGxlbmd0aEFkanVzdD0ic3BhY2luZyIgdGV4dExlbmd0aD0iMTQiIHg9IjQxNSIgeT0iNTE1Ljk4NDQiPjEzPC90ZXh0Pjx0ZXh0IGZpbGw9IiMwMDAwMDAiIGZvbnQtZmFtaWx5PSJzYW5zLXNlcmlmIiBmb250LXNpemU9IjEzIiBsZW5ndGhBZGp1c3Q9InNwYWNpbmciIHRleHRMZW5ndGg9IjciIHg9IjQzMyIgeT0iNTE1Ljk4NDQiPiYjMTYwOzwvdGV4dD48cG9seWdvbiBmaWxsPSIjMTgxODE4IiBwb2ludHM9IjgyMCw1NDMuNTIzNCw4MzAsNTQ3LjUyMzQsODIwLDU1MS41MjM0LDgyNCw1NDcuNTIzNCIgc3R5bGU9InN0cm9rZTojMTgxODE4O3N0cm9rZS13aWR0aDoxLjA7Ii8+PGxpbmUgc3R5bGU9InN0cm9rZTojMTgxODE4O3N0cm9rZS13aWR0aDoxLjA7IiB4MT0iMzk4IiB4Mj0iODI2IiB5MT0iNTQ3LjUyMzQiIHkyPSI1NDcuNTIzNCIvPjx0ZXh0IGZpbGw9IiMwMDAwMDAiIGZvbnQtZmFtaWx5PSJzYW5zLXNlcmlmIiBmb250LXNpemU9IjEzIiBmb250LXdlaWdodD0iYm9sZCIgbGVuZ3RoQWRqdXN0PSJzcGFjaW5nIiB0ZXh0TGVuZ3RoPSIxNCIgeD0iNDA1IiB5PSI1NDMuODk4NCI+MTQ8L3RleHQ+PHRleHQgZmlsbD0iIzAwMDAwMCIgZm9udC1mYW1pbHk9InNhbnMtc2VyaWYiIGZvbnQtc2l6ZT0iMTMiIGxlbmd0aEFkanVzdD0ic3BhY2luZyIgdGV4dExlbmd0aD0iMTk1IiB4PSI0MjMiIHk9IjU0My44OTg0Ij4mIzI3OTYzOyYjMjExNjA7JiMyMDQ0OTsmIzI0Njg3OyYjMzQ5MjA7OlMwM1QxX1dGX1Bjc19BdnkmIzEyMjkwOzwvdGV4dD48cG9seWdvbiBmaWxsPSIjMTgxODE4IiBwb2ludHM9IjQwOSw1NzEuNDM3NSwzOTksNTc1LjQzNzUsNDA5LDU3OS40Mzc1LDQwNSw1NzUuNDM3NSIgc3R5bGU9InN0cm9rZTojMTgxODE4O3N0cm9rZS13aWR0aDoxLjA7Ii8+PGxpbmUgc3R5bGU9InN0cm9rZTojMTgxODE4O3N0cm9rZS13aWR0aDoxLjA7c3Ryb2tlLWRhc2hhcnJheToyLjAsMi4wOyIgeDE9IjQwMyIgeDI9IjgzNiIgeTE9IjU3NS40Mzc1IiB5Mj0iNTc1LjQzNzUiLz48dGV4dCBmaWxsPSIjMDAwMDAwIiBmb250LWZhbWlseT0ic2Fucy1zZXJpZiIgZm9udC1zaXplPSIxMyIgZm9udC13ZWlnaHQ9ImJvbGQiIGxlbmd0aEFkanVzdD0ic3BhY2luZyIgdGV4dExlbmd0aD0iMTQiIHg9IjQxNSIgeT0iNTcxLjgxMjUiPjE1PC90ZXh0Pjx0ZXh0IGZpbGw9IiMwMDAwMDAiIGZvbnQtZmFtaWx5PSJzYW5zLXNlcmlmIiBmb250LXNpemU9IjEzIiBsZW5ndGhBZGp1c3Q9InNwYWNpbmciIHRleHRMZW5ndGg9IjciIHg9IjQzMyIgeT0iNTcxLjgxMjUiPiYjMTYwOzwvdGV4dD48cG9seWdvbiBmaWxsPSIjMTgxODE4IiBwb2ludHM9IjgyMCw1OTkuMzUxNiw4MzAsNjAzLjM1MTYsODIwLDYwNy4zNTE2LDgyNCw2MDMuMzUxNiIgc3R5bGU9InN0cm9rZTojMTgxODE4O3N0cm9rZS13aWR0aDoxLjA7Ii8+PGxpbmUgc3R5bGU9InN0cm9rZTojMTgxODE4O3N0cm9rZS13aWR0aDoxLjA7IiB4MT0iMzk4IiB4Mj0iODI2IiB5MT0iNjAzLjM1MTYiIHkyPSI2MDMuMzUxNiIvPjx0ZXh0IGZpbGw9IiMwMDAwMDAiIGZvbnQtZmFtaWx5PSJzYW5zLXNlcmlmIiBmb250LXNpemU9IjEzIiBmb250LXdlaWdodD0iYm9sZCIgbGVuZ3RoQWRqdXN0PSJzcGFjaW5nIiB0ZXh0TGVuZ3RoPSIxNCIgeD0iNDA1IiB5PSI1OTkuNzI2NiI+MTY8L3RleHQ+PHRleHQgZmlsbD0iIzAwMDAwMCIgZm9udC1mYW1pbHk9InNhbnMtc2VyaWYiIGZvbnQtc2l6ZT0iMTMiIGxlbmd0aEFkanVzdD0ic3BhY2luZyIgdGV4dExlbmd0aD0iMjYxIiB4PSI0MjMiIHk9IjU5OS43MjY2Ij4mIzI2MzU2OyYjMjYwMzI7JiMyNzk2OTsmIzMxMjQzOyYjMjM0NTQ7JiMyMDM2MzsmIzM0OTIwOzogUzAzVDFfV0ZfUFJPQ0VTU19JTlNUJiMxMjI5MDs8L3RleHQ+PHBvbHlnb24gZmlsbD0iIzE4MTgxOCIgcG9pbnRzPSI0MDksNjI3LjI2NTYsMzk5LDYzMS4yNjU2LDQwOSw2MzUuMjY1Niw0MDUsNjMxLjI2NTYiIHN0eWxlPSJzdHJva2U6IzE4MTgxODtzdHJva2Utd2lkdGg6MS4wOyIvPjxsaW5lIHN0eWxlPSJzdHJva2U6IzE4MTgxODtzdHJva2Utd2lkdGg6MS4wO3N0cm9rZS1kYXNoYXJyYXk6Mi4wLDIuMDsiIHgxPSI0MDMiIHgyPSI4MzYiIHkxPSI2MzEuMjY1NiIgeTI9IjYzMS4yNjU2Ii8+PHRleHQgZmlsbD0iIzAwMDAwMCIgZm9udC1mYW1pbHk9InNhbnMtc2VyaWYiIGZvbnQtc2l6ZT0iMTMiIGZvbnQtd2VpZ2h0PSJib2xkIiBsZW5ndGhBZGp1c3Q9InNwYWNpbmciIHRleHRMZW5ndGg9IjE0IiB4PSI0MTUiIHk9IjYyNy42NDA2Ij4xNzwvdGV4dD48dGV4dCBmaWxsPSIjMDAwMDAwIiBmb250LWZhbWlseT0ic2Fucy1zZXJpZiIgZm9udC1zaXplPSIxMyIgbGVuZ3RoQWRqdXN0PSJzcGFjaW5nIiB0ZXh0TGVuZ3RoPSI3IiB4PSI0MzMiIHk9IjYyNy42NDA2Ij4mIzE2MDs8L3RleHQ+PGxpbmUgc3R5bGU9InN0cm9rZTojMTgxODE4O3N0cm9rZS13aWR0aDoxLjA7IiB4MT0iMzk4IiB4Mj0iNDQwIiB5MT0iNjU5LjE3OTciIHkyPSI2NTkuMTc5NyIvPjxsaW5lIHN0eWxlPSJzdHJva2U6IzE4MTgxODtzdHJva2Utd2lkdGg6MS4wOyIgeDE9IjQ0MCIgeDI9IjQ0MCIgeTE9IjY1OS4xNzk3IiB5Mj0iNjcyLjE3OTciLz48bGluZSBzdHlsZT0ic3Ryb2tlOiMxODE4MTg7c3Ryb2tlLXdpZHRoOjEuMDsiIHgxPSIzOTkiIHgyPSI0NDAiIHkxPSI2NzIuMTc5NyIgeTI9IjY3Mi4xNzk3Ii8+PHBvbHlnb24gZmlsbD0iIzE4MTgxOCIgcG9pbnRzPSI0MDksNjY4LjE3OTcsMzk5LDY3Mi4xNzk3LDQwOSw2NzYuMTc5Nyw0MDUsNjcyLjE3OTciIHN0eWxlPSJzdHJva2U6IzE4MTgxODtzdHJva2Utd2lkdGg6MS4wOyIvPjx0ZXh0IGZpbGw9IiMwMDAwMDAiIGZvbnQtZmFtaWx5PSJzYW5zLXNlcmlmIiBmb250LXNpemU9IjEzIiBmb250LXdlaWdodD0iYm9sZCIgbGVuZ3RoQWRqdXN0PSJzcGFjaW5nIiB0ZXh0TGVuZ3RoPSIxNCIgeD0iNDA1IiB5PSI2NTUuNTU0NyI+MTg8L3RleHQ+PHRleHQgZmlsbD0iIzAwMDAwMCIgZm9udC1mYW1pbHk9InNhbnMtc2VyaWYiIGZvbnQtc2l6ZT0iMTMiIGxlbmd0aEFkanVzdD0ic3BhY2luZyIgdGV4dExlbmd0aD0iNyIgeD0iNDIzIiB5PSI2NTUuNTU0NyI+JiMxNjA7PC90ZXh0PjxsaW5lIHN0eWxlPSJzdHJva2U6IzE4MTgxODtzdHJva2Utd2lkdGg6MS4wOyIgeDE9IjM5OCIgeDI9IjQ0NSIgeTE9IjY5NS4wOTM4IiB5Mj0iNjk1LjA5MzgiLz48bGluZSBzdHlsZT0ic3Ryb2tlOiMxODE4MTg7c3Ryb2tlLXdpZHRoOjEuMDsiIHgxPSI0NDUiIHgyPSI0NDUiIHkxPSI2OTUuMDkzOCIgeTI9IjcwOC4wOTM4Ii8+PGxpbmUgc3R5bGU9InN0cm9rZTojMTgxODE4O3N0cm9rZS13aWR0aDoxLjA7IiB4MT0iNDA0IiB4Mj0iNDQ1IiB5MT0iNzA4LjA5MzgiIHkyPSI3MDguMDkzOCIvPjxwb2x5Z29uIGZpbGw9IiMxODE4MTgiIHBvaW50cz0iNDE0LDcwNC4wOTM4LDQwNCw3MDguMDkzOCw0MTQsNzEyLjA5MzgsNDEwLDcwOC4wOTM4IiBzdHlsZT0ic3Ryb2tlOiMxODE4MTg7c3Ryb2tlLXdpZHRoOjEuMDsiLz48dGV4dCBmaWxsPSIjMDAwMDAwIiBmb250LWZhbWlseT0ic2Fucy1zZXJpZiIgZm9udC1zaXplPSIxMyIgZm9udC13ZWlnaHQ9ImJvbGQiIGxlbmd0aEFkanVzdD0ic3BhY2luZyIgdGV4dExlbmd0aD0iMTQiIHg9IjQxMCIgeT0iNjkxLjQ2ODgiPjE5PC90ZXh0Pjx0ZXh0IGZpbGw9IiNGRjAwMDAiIGZvbnQtZmFtaWx5PSJzYW5zLXNlcmlmIiBmb250LXNpemU9IjEzIiBsZW5ndGhBZGp1c3Q9InNwYWNpbmciIHRleHRMZW5ndGg9Ijc4IiB4PSI0MjgiIHk9IjY5MS40Njg4Ij4mIzM2NzE2OyYjMzYxMzQ7JiMyNjY4MDsmIzI0NTE1OyYjMjAxOTU7JiMzMDcyMTs8L3RleHQ+PHBhdGggZD0iTTQwOCw3MjYuMDkzOCBMNDA4LDc5MS4wOTM4IEw4MjYsNzkxLjA5MzggTDgyNiw3MzYuMDkzOCBMODE2LDcyNi4wOTM4IEw0MDgsNzI2LjA5MzggIiBmaWxsPSIjRkVGRkREIiBzdHlsZT0ic3Ryb2tlOiMxODE4MTg7c3Ryb2tlLXdpZHRoOjAuNTsiLz48cGF0aCBkPSJNODE2LDcyNi4wOTM4IEw4MTYsNzM2LjA5MzggTDgyNiw3MzYuMDkzOCBMODE2LDcyNi4wOTM4ICIgZmlsbD0iI0ZFRkZERCIgc3R5bGU9InN0cm9rZTojMTgxODE4O3N0cm9rZS13aWR0aDowLjU7Ii8+PHRleHQgZmlsbD0iIzAwMDAwMCIgZm9udC1mYW1pbHk9InNhbnMtc2VyaWYiIGZvbnQtc2l6ZT0iMTMiIGxlbmd0aEFkanVzdD0ic3BhY2luZyIgdGV4dExlbmd0aD0iMzExIiB4PSI0MTQiIHk9Ijc0My4zODI4Ij4mIzM2ODkwOyYjMzY4MDc7Y2NvbW1vbndmQXVkaXRzZXJ2aWNlSW1wbC5qYXZhOiAxMTEmIzM3MzI0OyYjMzAzNDA7JiMyMDE5NTsmIzMwNzIxOzwvdGV4dD48dGV4dCBmaWxsPSIjMDAwMDAwIiBmb250LWZhbWlseT0ic2Fucy1zZXJpZiIgZm9udC1zaXplPSIxMyIgbGVuZ3RoQWRqdXN0PSJzcGFjaW5nIiB0ZXh0TGVuZ3RoPSIzMjUiIHg9IjQxNCIgeT0iNzU3LjI5NjkiPiYjMjA1NzA7JiMyNDIxMjsmIzI5OTkyOyYjMjI3ODg7JiMyOTcwMjsmIzY1Mjg4OyYjMjE0ODc7JiMyMDE5NzsmIzM2MjE1OyYjMjAxMDc7JiMyMTE1MzsmIzY1MjkyOyYjMjAwNjM7JiMyMTQ4NzsmIzIwMTk3OyYjMTk5ODE7JiMzNjIxNTsmIzIwMTA3OyYjMjExNTM7JiM2NTI4OTsmIzEyMjkwOyYjMjYzNjg7JiMyMTUxODsmIzM1ODQzOyYjMjEwNDA7PC90ZXh0Pjx0ZXh0IGZpbGw9IiMwMDAwMDAiIGZvbnQtZmFtaWx5PSJzYW5zLXNlcmlmIiBmb250LXNpemU9IjEzIiBsZW5ndGhBZGp1c3Q9InNwYWNpbmciIHRleHRMZW5ndGg9IjMxNSIgeD0iNDE0IiB5PSI3NzEuMjEwOSI+UHViVHJhbnNmZXJBcHBseXNlcnZpY2VJbXBsLmphdmE6IDM2MyYjMjA1NzA7JiMyNDIxMjsmIzI5OTkyOyYjMjI3ODg7JiMyOTcwMjs8L3RleHQ+PHRleHQgZmlsbD0iIzAwMDAwMCIgZm9udC1mYW1pbHk9InNhbnMtc2VyaWYiIGZvbnQtc2l6ZT0iMTMiIGxlbmd0aEFkanVzdD0ic3BhY2luZyIgdGV4dExlbmd0aD0iMzk3IiB4PSI0MTQiIHk9Ijc4NS4xMjUiPiYjMjUxOTE7JiMzNDg5MjtUcmFuT3JQYXlQY3NTZXJ2aWNlSW1wbCNwZXJQeVRmclBjc0NvcmUmIzIwMTk1OyYjMzA3MjE7JiMzNjgyNzsmIzM0ODkyOyYjMzY3MTY7JiMzNjEzNDsmIzIyNzg4OyYjMjk3MDI7PC90ZXh0Pjxwb2x5Z29uIGZpbGw9IiMxODE4MTgiIHBvaW50cz0iODIwLDgxMi42NjQxLDgzMCw4MTYuNjY0MSw4MjAsODIwLjY2NDEsODI0LDgxNi42NjQxIiBzdHlsZT0ic3Ryb2tlOiMxODE4MTg7c3Ryb2tlLXdpZHRoOjEuMDsiLz48bGluZSBzdHlsZT0ic3Ryb2tlOiMxODE4MTg7c3Ryb2tlLXdpZHRoOjEuMDsiIHgxPSI0MDMiIHgyPSI4MjYiIHkxPSI4MTYuNjY0MSIgeTI9IjgxNi42NjQxIi8+PHRleHQgZmlsbD0iIzAwMDAwMCIgZm9udC1mYW1pbHk9InNhbnMtc2VyaWYiIGZvbnQtc2l6ZT0iMTMiIGZvbnQtd2VpZ2h0PSJib2xkIiBsZW5ndGhBZGp1c3Q9InNwYWNpbmciIHRleHRMZW5ndGg9IjE0IiB4PSI0MTAiIHk9IjgxMy4wMzkxIj4yMDwvdGV4dD48dGV4dCBmaWxsPSIjMDAwMDAwIiBmb250LWZhbWlseT0ic2Fucy1zZXJpZiIgZm9udC1zaXplPSIxMyIgbGVuZ3RoQWRqdXN0PSJzcGFjaW5nIiB0ZXh0TGVuZ3RoPSIzNzkiIHg9IjQyOCIgeT0iODEzLjAzOTEiPiYjMjYzNTY7JiMyNjAzMjsmIzE5OTk0OyYjMjExNTM7JiMyNzk2OTsmIzI3NzAwOyYjMzQ5MjA7UzY1VDFfMFZTX1JQQlNOX0pSTklORiYjMzAzNDA7JiMyMDQ0OTsmIzI0Njg3OyYjNjUyODg7JiMyNzk2OTsmIzI3NzAwOyYjMzU4MTQ7JiMzMjQ1NDsmIzIwNDQ5OyYjMjQ2ODc7KTwvdGV4dD48cG9seWdvbiBmaWxsPSIjMTgxODE4IiBwb2ludHM9IjQxNCw4NDAuNTc4MSw0MDQsODQ0LjU3ODEsNDE0LDg0OC41NzgxLDQxMCw4NDQuNTc4MSIgc3R5bGU9InN0cm9rZTojMTgxODE4O3N0cm9rZS13aWR0aDoxLjA7Ii8+PGxpbmUgc3R5bGU9InN0cm9rZTojMTgxODE4O3N0cm9rZS13aWR0aDoxLjA7c3Ryb2tlLWRhc2hhcnJheToyLjAsMi4wOyIgeDE9IjQwOCIgeDI9IjgzNiIgeTE9Ijg0NC41NzgxIiB5Mj0iODQ0LjU3ODEiLz48dGV4dCBmaWxsPSIjMDAwMDAwIiBmb250LWZhbWlseT0ic2Fucy1zZXJpZiIgZm9udC1zaXplPSIxMyIgZm9udC13ZWlnaHQ9ImJvbGQiIGxlbmd0aEFkanVzdD0ic3BhY2luZyIgdGV4dExlbmd0aD0iMTQiIHg9IjQyMCIgeT0iODQwLjk1MzEiPjIxPC90ZXh0Pjx0ZXh0IGZpbGw9IiMwMDAwMDAiIGZvbnQtZmFtaWx5PSJzYW5zLXNlcmlmIiBmb250LXNpemU9IjEzIiBsZW5ndGhBZGp1c3Q9InNwYWNpbmciIHRleHRMZW5ndGg9IjciIHg9IjQzOCIgeT0iODQwLjk1MzEiPiYjMTYwOzwvdGV4dD48cG9seWdvbiBmaWxsPSIjMTgxODE4IiBwb2ludHM9IjgyMCw4NjguNDkyMiw4MzAsODcyLjQ5MjIsODIwLDg3Ni40OTIyLDgyNCw4NzIuNDkyMiIgc3R5bGU9InN0cm9rZTojMTgxODE4O3N0cm9rZS13aWR0aDoxLjA7Ii8+PGxpbmUgc3R5bGU9InN0cm9rZTojMTgxODE4O3N0cm9rZS13aWR0aDoxLjA7IiB4MT0iNDAzIiB4Mj0iODI2IiB5MT0iODcyLjQ5MjIiIHkyPSI4NzIuNDkyMiIvPjx0ZXh0IGZpbGw9IiMwMDAwMDAiIGZvbnQtZmFtaWx5PSJzYW5zLXNlcmlmIiBmb250LXNpemU9IjEzIiBmb250LXdlaWdodD0iYm9sZCIgbGVuZ3RoQWRqdXN0PSJzcGFjaW5nIiB0ZXh0TGVuZ3RoPSIxNCIgeD0iNDEwIiB5PSI4NjguODY3MiI+MjI8L3RleHQ+PHRleHQgZmlsbD0iIzAwMDAwMCIgZm9udC1mYW1pbHk9InNhbnMtc2VyaWYiIGZvbnQtc2l6ZT0iMTMiIGxlbmd0aEFkanVzdD0ic3BhY2luZyIgdGV4dExlbmd0aD0iMzc5IiB4PSI0MjgiIHk9Ijg2OC44NjcyIj4mIzI2MzU2OyYjMjYwMzI7JiMxOTk5NDsmIzIxMTUzOyYjMjc5Njk7JiMyNzcwMDsmIzM0OTIwO1M2NVQxXzBWU19SUEJTTl9KUk5JTkYmIzMwMzQwOyYjMjA0NDk7JiMyNDY4NzsmIzY1Mjg4OyYjMjc5Njk7JiMyNzcwMDsmIzM1ODE0OyYjMzI0NTQ7JiMyMDQ0OTsmIzI0Njg3Oyk8L3RleHQ+PHBvbHlnb24gZmlsbD0iIzE4MTgxOCIgcG9pbnRzPSI0MTQsODk2LjQwNjMsNDA0LDkwMC40MDYzLDQxNCw5MDQuNDA2Myw0MTAsOTAwLjQwNjMiIHN0eWxlPSJzdHJva2U6IzE4MTgxODtzdHJva2Utd2lkdGg6MS4wOyIvPjxsaW5lIHN0eWxlPSJzdHJva2U6IzE4MTgxODtzdHJva2Utd2lkdGg6MS4wO3N0cm9rZS1kYXNoYXJyYXk6Mi4wLDIuMDsiIHgxPSI0MDgiIHgyPSI4MzYiIHkxPSI5MDAuNDA2MyIgeTI9IjkwMC40MDYzIi8+PHRleHQgZmlsbD0iIzAwMDAwMCIgZm9udC1mYW1pbHk9InNhbnMtc2VyaWYiIGZvbnQtc2l6ZT0iMTMiIGZvbnQtd2VpZ2h0PSJib2xkIiBsZW5ndGhBZGp1c3Q9InNwYWNpbmciIHRleHRMZW5ndGg9IjE0IiB4PSI0MjAiIHk9Ijg5Ni43ODEzIj4yMzwvdGV4dD48dGV4dCBmaWxsPSIjMDAwMDAwIiBmb250LWZhbWlseT0ic2Fucy1zZXJpZiIgZm9udC1zaXplPSIxMyIgbGVuZ3RoQWRqdXN0PSJzcGFjaW5nIiB0ZXh0TGVuZ3RoPSI3IiB4PSI0MzgiIHk9Ijg5Ni43ODEzIj4mIzE2MDs8L3RleHQ+PGxpbmUgc3R5bGU9InN0cm9rZTojMTgxODE4O3N0cm9rZS13aWR0aDoxLjA7IiB4MT0iNDAzIiB4Mj0iNDUwIiB5MT0iOTIzLjMyMDMiIHkyPSI5MjMuMzIwMyIvPjxsaW5lIHN0eWxlPSJzdHJva2U6IzE4MTgxODtzdHJva2Utd2lkdGg6MS4wOyIgeDE9IjQ1MCIgeDI9IjQ1MCIgeTE9IjkyMy4zMjAzIiB5Mj0iOTM2LjMyMDMiLz48bGluZSBzdHlsZT0ic3Ryb2tlOiMxODE4MTg7c3Ryb2tlLXdpZHRoOjEuMDsiIHgxPSI0MDkiIHgyPSI0NTAiIHkxPSI5MzYuMzIwMyIgeTI9IjkzNi4zMjAzIi8+PHBvbHlnb24gZmlsbD0iIzE4MTgxOCIgcG9pbnRzPSI0MTksOTMyLjMyMDMsNDA5LDkzNi4zMjAzLDQxOSw5NDAuMzIwMyw0MTUsOTM2LjMyMDMiIHN0eWxlPSJzdHJva2U6IzE4MTgxODtzdHJva2Utd2lkdGg6MS4wOyIvPjx0ZXh0IGZpbGw9IiMwMDAwMDAiIGZvbnQtZmFtaWx5PSJzYW5zLXNlcmlmIiBmb250LXNpemU9IjEzIiBmb250LXdlaWdodD0iYm9sZCIgbGVuZ3RoQWRqdXN0PSJzcGFjaW5nIiB0ZXh0TGVuZ3RoPSIxNCIgeD0iNDE1IiB5PSI5MTkuNjk1MyI+MjQ8L3RleHQ+PHRleHQgZmlsbD0iIzAwMDAwMCIgZm9udC1mYW1pbHk9InNhbnMtc2VyaWYiIGZvbnQtc2l6ZT0iMTMiIGxlbmd0aEFkanVzdD0ic3BhY2luZyIgdGV4dExlbmd0aD0iMTMwIiB4PSI0MzMiIHk9IjkxOS42OTUzIj4mIzM1ODQzOyYjMjk5OTI7JiMzODQ4MDsmIzM5MDY5OyYjMjUxODc7JiMyMDk0MzsmIzMwNDU2OyYjMjA4NTE7JiMzNjkyMzsmIzM2NzUzOzwvdGV4dD48bGluZSBzdHlsZT0ic3Ryb2tlOiMxODE4MTg7c3Ryb2tlLXdpZHRoOjEuMDsiIHgxPSI0MDgiIHgyPSI0NTAiIHkxPSI5NjkuMjM0NCIgeTI9Ijk2OS4yMzQ0Ii8+PGxpbmUgc3R5bGU9InN0cm9rZTojMTgxODE4O3N0cm9rZS13aWR0aDoxLjA7IiB4MT0iNDUwIiB4Mj0iNDUwIiB5MT0iOTY5LjIzNDQiIHkyPSI5ODIuMjM0NCIvPjxsaW5lIHN0eWxlPSJzdHJva2U6IzE4MTgxODtzdHJva2Utd2lkdGg6MS4wOyIgeDE9IjQwOSIgeDI9IjQ1MCIgeTE9Ijk4Mi4yMzQ0IiB5Mj0iOTgyLjIzNDQiLz48cG9seWdvbiBmaWxsPSIjMTgxODE4IiBwb2ludHM9IjQxOSw5NzguMjM0NCw0MDksOTgyLjIzNDQsNDE5LDk4Ni4yMzQ0LDQxNSw5ODIuMjM0NCIgc3R5bGU9InN0cm9rZTojMTgxODE4O3N0cm9rZS13aWR0aDoxLjA7Ii8+PHRleHQgZmlsbD0iIzAwMDAwMCIgZm9udC1mYW1pbHk9InNhbnMtc2VyaWYiIGZvbnQtc2l6ZT0iMTMiIGZvbnQtd2VpZ2h0PSJib2xkIiBsZW5ndGhBZGp1c3Q9InNwYWNpbmciIHRleHRMZW5ndGg9IjE0IiB4PSI0MTUiIHk9Ijk2NS42MDk0Ij4yNTwvdGV4dD48dGV4dCBmaWxsPSIjMDAwMDAwIiBmb250LWZhbWlseT0ic2Fucy1zZXJpZiIgZm9udC1zaXplPSIxMyIgbGVuZ3RoQWRqdXN0PSJzcGFjaW5nIiB0ZXh0TGVuZ3RoPSIxODgiIHg9IjQzMyIgeT0iOTY1LjYwOTQiPiYjMjY2ODE7JiMyNTQ1NDsmIzI3NzE5OyYjMjk1NzU7JiMyNTQ0MjsmIzMxNjM5OyYjMzg0ODA7JiMzOTA2OTsmIzY1Mjg4OyYjMjUzNTM7JiMyODIwNzsmIzI0MDY1OyYjMzU3NDU7JiMzMTYzOTspPC90ZXh0PjxwYXRoIGQ9Ik00MTMsOTk1LjIzNDQgTDQxMywxMDMyLjIzNDQgTDEwMTIsMTAzMi4yMzQ0IEwxMDEyLDEwMDUuMjM0NCBMMTAwMiw5OTUuMjM0NCBMNDEzLDk5NS4yMzQ0ICIgZmlsbD0iI0ZFRkZERCIgc3R5bGU9InN0cm9rZTojMTgxODE4O3N0cm9rZS13aWR0aDowLjU7Ii8+PHBhdGggZD0iTTEwMDIsOTk1LjIzNDQgTDEwMDIsMTAwNS4yMzQ0IEwxMDEyLDEwMDUuMjM0NCBMMTAwMiw5OTUuMjM0NCAiIGZpbGw9IiNGRUZGREQiIHN0eWxlPSJzdHJva2U6IzE4MTgxODtzdHJva2Utd2lkdGg6MC41OyIvPjx0ZXh0IGZpbGw9IiMwMDAwMDAiIGZvbnQtZmFtaWx5PSJzYW5zLXNlcmlmIiBmb250LXNpemU9IjEzIiBsZW5ndGhBZGp1c3Q9InNwYWNpbmciIHRleHRMZW5ndGg9IjU3OCIgeD0iNDE5IiB5PSIxMDEyLjUyMzQiPiYjMzU4NDM7JiMyOTk5Mjtvc1RyYW5PclBheVNlcnZpY2VJbXBsI2RvTmV3VHhPc1B5bXRUZnJQcmVQY3MmIzM2ODI3OyYjMzQ4OTI7JiMzODQ4MDsmIzM5MDY5OyYjMjI3ODg7JiMyOTcwMjsmIzM4NDgwOyYjMzkwNjk7JiMyMDAyNzsmIzM1MjAxOyYjMzgwMjQ7JiMyMzU0NTsmIzIwMDA0OyYjMjQzNTI7JiMzNDkyMDsmIzM2ODI3OyYjMzQ4OTI7JiMyMjc4ODsmIzI5NzAyOzwvdGV4dD48dGV4dCBmaWxsPSIjMDAwMDAwIiBmb250LWZhbWlseT0ic2Fucy1zZXJpZiIgZm9udC1zaXplPSIxMyIgbGVuZ3RoQWRqdXN0PSJzcGFjaW5nIiB0ZXh0TGVuZ3RoPSI0NjciIHg9IjQxOSIgeT0iMTAyNi40Mzc1Ij5TNjVUMV9PVlNfUFlfUFJTWl9TVEFUX0lORi0mIzMyMDQ3OyYjMzU3NDU7JiMzNzMyOTsmIzM5MDY5OyYjMzQ5MjA7UzY1VDFfb1ZTX1BZX1BSU1pfSU5GLSYjMzg0ODA7JiMzOTA2OTsmIzMxNTYxOyYjMzI0MjM7JiMzNDkyMDs8L3RleHQ+PHBvbHlnb24gZmlsbD0iIzE4MTgxOCIgcG9pbnRzPSI4MjAsMTA1My45NzY2LDgzMCwxMDU3Ljk3NjYsODIwLDEwNjEuOTc2Niw4MjQsMTA1Ny45NzY2IiBzdHlsZT0ic3Ryb2tlOiMxODE4MTg7c3Ryb2tlLXdpZHRoOjEuMDsiLz48bGluZSBzdHlsZT0ic3Ryb2tlOiMxODE4MTg7c3Ryb2tlLXdpZHRoOjEuMDsiIHgxPSI0MDgiIHgyPSI4MjYiIHkxPSIxMDU3Ljk3NjYiIHkyPSIxMDU3Ljk3NjYiLz48dGV4dCBmaWxsPSIjMDAwMDAwIiBmb250LWZhbWlseT0ic2Fucy1zZXJpZiIgZm9udC1zaXplPSIxMyIgZm9udC13ZWlnaHQ9ImJvbGQiIGxlbmd0aEFkanVzdD0ic3BhY2luZyIgdGV4dExlbmd0aD0iMTQiIHg9IjQxNSIgeT0iMTA1NC4zNTE2Ij4yNjwvdGV4dD48dGV4dCBmaWxsPSIjMDAwMDAwIiBmb250LWZhbWlseT0ic2Fucy1zZXJpZiIgZm9udC1zaXplPSIxMyIgbGVuZ3RoQWRqdXN0PSJzcGFjaW5nIiB0ZXh0TGVuZ3RoPSIyNjMiIHg9IjQzMyIgeT0iMTA1NC4zNTE2Ij4mIzI2MzU2OyYjMjYwMzI7JiMzMjA0NzsmIzM1NzQ1OyYjMzkwNjk7JiMyNDIzMDstUzY1VDFfT1ZTX1BZX1BSU1pfU1RBVF9JTkY8L3RleHQ+PHBvbHlnb24gZmlsbD0iIzE4MTgxOCIgcG9pbnRzPSI0MTksMTA4MS44OTA2LDQwOSwxMDg1Ljg5MDYsNDE5LDEwODkuODkwNiw0MTUsMTA4NS44OTA2IiBzdHlsZT0ic3Ryb2tlOiMxODE4MTg7c3Ryb2tlLXdpZHRoOjEuMDsiLz48bGluZSBzdHlsZT0ic3Ryb2tlOiMxODE4MTg7c3Ryb2tlLXdpZHRoOjEuMDtzdHJva2UtZGFzaGFycmF5OjIuMCwyLjA7IiB4MT0iNDEzIiB4Mj0iODM2IiB5MT0iMTA4NS44OTA2IiB5Mj0iMTA4NS44OTA2Ii8+PHRleHQgZmlsbD0iIzAwMDAwMCIgZm9udC1mYW1pbHk9InNhbnMtc2VyaWYiIGZvbnQtc2l6ZT0iMTMiIGZvbnQtd2VpZ2h0PSJib2xkIiBsZW5ndGhBZGp1c3Q9InNwYWNpbmciIHRleHRMZW5ndGg9IjE0IiB4PSI0MjUiIHk9IjEwODIuMjY1NiI+Mjc8L3RleHQ+PHRleHQgZmlsbD0iIzAwMDAwMCIgZm9udC1mYW1pbHk9InNhbnMtc2VyaWYiIGZvbnQtc2l6ZT0iMTMiIGxlbmd0aEFkanVzdD0ic3BhY2luZyIgdGV4dExlbmd0aD0iNyIgeD0iNDQzIiB5PSIxMDgyLjI2NTYiPiYjMTYwOzwvdGV4dD48bGluZSBzdHlsZT0ic3Ryb2tlOiMxODE4MTg7c3Ryb2tlLXdpZHRoOjEuMDtzdHJva2UtZGFzaGFycmF5OjIuMCwyLjA7IiB4MT0iNDA4IiB4Mj0iNDUwIiB5MT0iMTExOC44MDQ3IiB5Mj0iMTExOC44MDQ3Ii8+PGxpbmUgc3R5bGU9InN0cm9rZTojMTgxODE4O3N0cm9rZS13aWR0aDoxLjA7c3Ryb2tlLWRhc2hhcnJheToyLjAsMi4wOyIgeDE9IjQ1MCIgeDI9IjQ1MCIgeTE9IjExMTguODA0NyIgeTI9IjExMzEuODA0NyIvPjxsaW5lIHN0eWxlPSJzdHJva2U6IzE4MTgxODtzdHJva2Utd2lkdGg6MS4wO3N0cm9rZS1kYXNoYXJyYXk6Mi4wLDIuMDsiIHgxPSI0MDMiIHgyPSI0NTAiIHkxPSIxMTMxLjgwNDciIHkyPSIxMTMxLjgwNDciLz48cG9seWdvbiBmaWxsPSIjMTgxODE4IiBwb2ludHM9IjQxMywxMTI3LjgwNDcsNDAzLDExMzEuODA0Nyw0MTMsMTEzNS44MDQ3LDQwOSwxMTMxLjgwNDciIHN0eWxlPSJzdHJva2U6IzE4MTgxODtzdHJva2Utd2lkdGg6MS4wOyIvPjx0ZXh0IGZpbGw9IiMwMDAwMDAiIGZvbnQtZmFtaWx5PSJzYW5zLXNlcmlmIiBmb250LXNpemU9IjEzIiBmb250LXdlaWdodD0iYm9sZCIgbGVuZ3RoQWRqdXN0PSJzcGFjaW5nIiB0ZXh0TGVuZ3RoPSIxNCIgeD0iNDE1IiB5PSIxMTE1LjE3OTciPjI4PC90ZXh0Pjx0ZXh0IGZpbGw9IiMwMDAwMDAiIGZvbnQtZmFtaWx5PSJzYW5zLXNlcmlmIiBmb250LXNpemU9IjEzIiBsZW5ndGhBZGp1c3Q9InNwYWNpbmciIHRleHRMZW5ndGg9IjciIHg9IjQzMyIgeT0iMTExNS4xNzk3Ij4mIzE2MDs8L3RleHQ+PHBvbHlnb24gZmlsbD0iIzE4MTgxOCIgcG9pbnRzPSI4MjAsMTE1MC43MTg4LDgzMCwxMTU0LjcxODgsODIwLDExNTguNzE4OCw4MjQsMTE1NC43MTg4IiBzdHlsZT0ic3Ryb2tlOiMxODE4MTg7c3Ryb2tlLXdpZHRoOjEuMDsiLz48bGluZSBzdHlsZT0ic3Ryb2tlOiMxODE4MTg7c3Ryb2tlLXdpZHRoOjEuMDsiIHgxPSI0MDMiIHgyPSI4MjYiIHkxPSIxMTU0LjcxODgiIHkyPSIxMTU0LjcxODgiLz48dGV4dCBmaWxsPSIjMDAwMDAwIiBmb250LWZhbWlseT0ic2Fucy1zZXJpZiIgZm9udC1zaXplPSIxMyIgZm9udC13ZWlnaHQ9ImJvbGQiIGxlbmd0aEFkanVzdD0ic3BhY2luZyIgdGV4dExlbmd0aD0iMTQiIHg9IjQxMCIgeT0iMTE1MS4wOTM4Ij4yOTwvdGV4dD48dGV4dCBmaWxsPSIjMDAwMDAwIiBmb250LWZhbWlseT0ic2Fucy1zZXJpZiIgZm9udC1zaXplPSIxMyIgbGVuZ3RoQWRqdXN0PSJzcGFjaW5nIiB0ZXh0TGVuZ3RoPSIyMDgiIHg9IjQyOCIgeT0iMTE1MS4wOTM4Ij4mIzI1NTU0OyYjMjA4Mzc7JiMzNjEzNDsmIzIxMTUzOyYjMjc5Njk7JiMyNzcwMDsmIzM0OTIwOy1TME9UMV9BQ0dfSlJOSU5GPC90ZXh0Pjxwb2x5Z29uIGZpbGw9IiMxODE4MTgiIHBvaW50cz0iNDE0LDExNzguNjMyOCw0MDQsMTE4Mi42MzI4LDQxNCwxMTg2LjYzMjgsNDEwLDExODIuNjMyOCIgc3R5bGU9InN0cm9rZTojMTgxODE4O3N0cm9rZS13aWR0aDoxLjA7Ii8+PGxpbmUgc3R5bGU9InN0cm9rZTojMTgxODE4O3N0cm9rZS13aWR0aDoxLjA7c3Ryb2tlLWRhc2hhcnJheToyLjAsMi4wOyIgeDE9IjQwOCIgeDI9IjgzNiIgeTE9IjExODIuNjMyOCIgeTI9IjExODIuNjMyOCIvPjx0ZXh0IGZpbGw9IiMwMDAwMDAiIGZvbnQtZmFtaWx5PSJzYW5zLXNlcmlmIiBmb250LXNpemU9IjEzIiBmb250LXdlaWdodD0iYm9sZCIgbGVuZ3RoQWRqdXN0PSJzcGFjaW5nIiB0ZXh0TGVuZ3RoPSIxNCIgeD0iNDIwIiB5PSIxMTc5LjAwNzgiPjMwPC90ZXh0Pjx0ZXh0IGZpbGw9IiMwMDAwMDAiIGZvbnQtZmFtaWx5PSJzYW5zLXNlcmlmIiBmb250LXNpemU9IjEzIiBsZW5ndGhBZGp1c3Q9InNwYWNpbmciIHRleHRMZW5ndGg9IjciIHg9IjQzOCIgeT0iMTE3OS4wMDc4Ij4mIzE2MDs8L3RleHQ+PHBvbHlnb24gZmlsbD0iIzE4MTgxOCIgcG9pbnRzPSI4MjAsMTIwNi41NDY5LDgzMCwxMjEwLjU0NjksODIwLDEyMTQuNTQ2OSw4MjQsMTIxMC41NDY5IiBzdHlsZT0ic3Ryb2tlOiMxODE4MTg7c3Ryb2tlLXdpZHRoOjEuMDsiLz48bGluZSBzdHlsZT0ic3Ryb2tlOiMxODE4MTg7c3Ryb2tlLXdpZHRoOjEuMDsiIHgxPSI0MDMiIHgyPSI4MjYiIHkxPSIxMjEwLjU0NjkiIHkyPSIxMjEwLjU0NjkiLz48dGV4dCBmaWxsPSIjMDAwMDAwIiBmb250LWZhbWlseT0ic2Fucy1zZXJpZiIgZm9udC1zaXplPSIxMyIgZm9udC13ZWlnaHQ9ImJvbGQiIGxlbmd0aEFkanVzdD0ic3BhY2luZyIgdGV4dExlbmd0aD0iMTQiIHg9IjQxMCIgeT0iMTIwNi45MjE5Ij4zMTwvdGV4dD48dGV4dCBmaWxsPSIjMDAwMDAwIiBmb250LWZhbWlseT0ic2Fucy1zZXJpZiIgZm9udC1zaXplPSIxMyIgbGVuZ3RoQWRqdXN0PSJzcGFjaW5nIiB0ZXh0TGVuZ3RoPSIzOTIiIHg9IjQyOCIgeT0iMTIwNi45MjE5Ij4mIzI2MzU2OyYjMjYwMzI7JiMxOTk5NDsmIzIxMTUzOyYjMjc5Njk7JiMyNzcwMDsmIzM0OTIwO1M2NVQxXzBWU19SUEJTTl9KUk5JTkYmIzMwMzQwOyYjMjA0NDk7JiMyNDY4NzsmIzY1Mjg4OyYjMjYxMDI7JiMzODM4ODsmIzY1MjkyO2lwJiM2NTI5MjsmIzI5MzY2OyYjMjQ1Nzc7KTwvdGV4dD48cG9seWdvbiBmaWxsPSIjMTgxODE4IiBwb2ludHM9IjQxNCwxMjM0LjQ2MDksNDA0LDEyMzguNDYwOSw0MTQsMTI0Mi40NjA5LDQxMCwxMjM4LjQ2MDkiIHN0eWxlPSJzdHJva2U6IzE4MTgxODtzdHJva2Utd2lkdGg6MS4wOyIvPjxsaW5lIHN0eWxlPSJzdHJva2U6IzE4MTgxODtzdHJva2Utd2lkdGg6MS4wO3N0cm9rZS1kYXNoYXJyYXk6Mi4wLDIuMDsiIHgxPSI0MDgiIHgyPSI4MzYiIHkxPSIxMjM4LjQ2MDkiIHkyPSIxMjM4LjQ2MDkiLz48dGV4dCBmaWxsPSIjMDAwMDAwIiBmb250LWZhbWlseT0ic2Fucy1zZXJpZiIgZm9udC1zaXplPSIxMyIgZm9udC13ZWlnaHQ9ImJvbGQiIGxlbmd0aEFkanVzdD0ic3BhY2luZyIgdGV4dExlbmd0aD0iMTQiIHg9IjQyMCIgeT0iMTIzNC44MzU5Ij4zMjwvdGV4dD48dGV4dCBmaWxsPSIjMDAwMDAwIiBmb250LWZhbWlseT0ic2Fucy1zZXJpZiIgZm9udC1zaXplPSIxMyIgbGVuZ3RoQWRqdXN0PSJzcGFjaW5nIiB0ZXh0TGVuZ3RoPSI3IiB4PSI0MzgiIHk9IjEyMzQuODM1OSI+JiMxNjA7PC90ZXh0Pjxwb2x5Z29uIGZpbGw9IiMxODE4MTgiIHBvaW50cz0iOTAzLDEyNjIuMzc1LDkxMywxMjY2LjM3NSw5MDMsMTI3MC4zNzUsOTA3LDEyNjYuMzc1IiBzdHlsZT0ic3Ryb2tlOiMxODE4MTg7c3Ryb2tlLXdpZHRoOjEuMDsiLz48bGluZSBzdHlsZT0ic3Ryb2tlOiMxODE4MTg7c3Ryb2tlLXdpZHRoOjEuMDsiIHgxPSI0MDMiIHgyPSI5MDkiIHkxPSIxMjY2LjM3NSIgeTI9IjEyNjYuMzc1Ii8+PHRleHQgZmlsbD0iIzAwMDAwMCIgZm9udC1mYW1pbHk9InNhbnMtc2VyaWYiIGZvbnQtc2l6ZT0iMTMiIGZvbnQtd2VpZ2h0PSJib2xkIiBsZW5ndGhBZGp1c3Q9InNwYWNpbmciIHRleHRMZW5ndGg9IjE0IiB4PSI0MTAiIHk9IjEyNjIuNzUiPjMzPC90ZXh0Pjx0ZXh0IGZpbGw9IiMwMDAwMDAiIGZvbnQtZmFtaWx5PSJzYW5zLXNlcmlmIiBmb250LXNpemU9IjEzIiBsZW5ndGhBZGp1c3Q9InNwYWNpbmciIHRleHRMZW5ndGg9IjM2MyIgeD0iNDI4IiB5PSIxMjYyLjc1Ij4mIzIyODA2OyYjMjE2Mjg7QTAxODFTNzA2LSYjMjM1NDU7JiMyMDg0NDsmIzI3OTYzOyYjMjYzOTk7JiMyMzM4NDsmIzI3NDU0OyYjMjU5MDM7JiMyMTQ2MjstJiMzMDAwNTsmIzIzMzc2OyYjMjgxOTI7JiMzNjk0NzsmIzI1NTA5OyYjMjE0NzU7JiMzNjgyNzsmIzM0ODkyOyYjMzYxMzQ7JiMyMTE1MzsmIzIyNzg4OyYjMjk3MDI7PC90ZXh0Pjxwb2x5Z29uIGZpbGw9IiMxODE4MTgiIHBvaW50cz0iNDE0LDEyOTAuMjg5MSw0MDQsMTI5NC4yODkxLDQxNCwxMjk4LjI4OTEsNDEwLDEyOTQuMjg5MSIgc3R5bGU9InN0cm9rZTojMTgxODE4O3N0cm9rZS13aWR0aDoxLjA7Ii8+PGxpbmUgc3R5bGU9InN0cm9rZTojMTgxODE4O3N0cm9rZS13aWR0aDoxLjA7c3Ryb2tlLWRhc2hhcnJheToyLjAsMi4wOyIgeDE9IjQwOCIgeDI9IjkxOSIgeTE9IjEyOTQuMjg5MSIgeTI9IjEyOTQuMjg5MSIvPjx0ZXh0IGZpbGw9IiMwMDAwMDAiIGZvbnQtZmFtaWx5PSJzYW5zLXNlcmlmIiBmb250LXNpemU9IjEzIiBmb250LXdlaWdodD0iYm9sZCIgbGVuZ3RoQWRqdXN0PSJzcGFjaW5nIiB0ZXh0TGVuZ3RoPSIxNCIgeD0iNDIwIiB5PSIxMjkwLjY2NDEiPjM0PC90ZXh0Pjx0ZXh0IGZpbGw9IiMwMDAwMDAiIGZvbnQtZmFtaWx5PSJzYW5zLXNlcmlmIiBmb250LXNpemU9IjEzIiBsZW5ndGhBZGp1c3Q9InNwYWNpbmciIHRleHRMZW5ndGg9IjciIHg9IjQzOCIgeT0iMTI5MC42NjQxIj4mIzE2MDs8L3RleHQ+PHBvbHlnb24gZmlsbD0iIzE4MTgxOCIgcG9pbnRzPSI4MjAsMTMxOC4yMDMxLDgzMCwxMzIyLjIwMzEsODIwLDEzMjYuMjAzMSw4MjQsMTMyMi4yMDMxIiBzdHlsZT0ic3Ryb2tlOiMxODE4MTg7c3Ryb2tlLXdpZHRoOjEuMDsiLz48bGluZSBzdHlsZT0ic3Ryb2tlOiMxODE4MTg7c3Ryb2tlLXdpZHRoOjEuMDsiIHgxPSI0MDMiIHgyPSI4MjYiIHkxPSIxMzIyLjIwMzEiIHkyPSIxMzIyLjIwMzEiLz48dGV4dCBmaWxsPSIjMDAwMDAwIiBmb250LWZhbWlseT0ic2Fucy1zZXJpZiIgZm9udC1zaXplPSIxMyIgZm9udC13ZWlnaHQ9ImJvbGQiIGxlbmd0aEFkanVzdD0ic3BhY2luZyIgdGV4dExlbmd0aD0iMTQiIHg9IjQxMCIgeT0iMTMxOC41NzgxIj4zNTwvdGV4dD48dGV4dCBmaWxsPSIjMDAwMDAwIiBmb250LWZhbWlseT0ic2Fucy1zZXJpZiIgZm9udC1zaXplPSIxMyIgbGVuZ3RoQWRqdXN0PSJzcGFjaW5nIiB0ZXh0TGVuZ3RoPSIyMDgiIHg9IjQyOCIgeT0iMTMxOC41NzgxIj4mIzI1NTU0OyYjMjA4Mzc7JiMzNjEzNDsmIzIxMTUzOyYjMjc5Njk7JiMyNzcwMDsmIzM0OTIwOy1TMDBUMV9BQ0dfSlJOSU5GPC90ZXh0Pjxwb2x5Z29uIGZpbGw9IiMxODE4MTgiIHBvaW50cz0iNDE0LDEzNDYuMTE3Miw0MDQsMTM1MC4xMTcyLDQxNCwxMzU0LjExNzIsNDEwLDEzNTAuMTE3MiIgc3R5bGU9InN0cm9rZTojMTgxODE4O3N0cm9rZS13aWR0aDoxLjA7Ii8+PGxpbmUgc3R5bGU9InN0cm9rZTojMTgxODE4O3N0cm9rZS13aWR0aDoxLjA7c3Ryb2tlLWRhc2hhcnJheToyLjAsMi4wOyIgeDE9IjQwOCIgeDI9IjgzNiIgeTE9IjEzNTAuMTE3MiIgeTI9IjEzNTAuMTE3MiIvPjx0ZXh0IGZpbGw9IiMwMDAwMDAiIGZvbnQtZmFtaWx5PSJzYW5zLXNlcmlmIiBmb250LXNpemU9IjEzIiBmb250LXdlaWdodD0iYm9sZCIgbGVuZ3RoQWRqdXN0PSJzcGFjaW5nIiB0ZXh0TGVuZ3RoPSIxNCIgeD0iNDIwIiB5PSIxMzQ2LjQ5MjIiPjM2PC90ZXh0Pjx0ZXh0IGZpbGw9IiMwMDAwMDAiIGZvbnQtZmFtaWx5PSJzYW5zLXNlcmlmIiBmb250LXNpemU9IjEzIiBsZW5ndGhBZGp1c3Q9InNwYWNpbmciIHRleHRMZW5ndGg9IjciIHg9IjQzOCIgeT0iMTM0Ni40OTIyIj4mIzE2MDs8L3RleHQ+PGxpbmUgc3R5bGU9InN0cm9rZTojMTgxODE4O3N0cm9rZS13aWR0aDoxLjA7c3Ryb2tlLWRhc2hhcnJheToyLjAsMi4wOyIgeDE9IjQwMyIgeDI9IjQ0NSIgeTE9IjEzODMuMDMxMyIgeTI9IjEzODMuMDMxMyIvPjxsaW5lIHN0eWxlPSJzdHJva2U6IzE4MTgxODtzdHJva2Utd2lkdGg6MS4wO3N0cm9rZS1kYXNoYXJyYXk6Mi4wLDIuMDsiIHgxPSI0NDUiIHgyPSI0NDUiIHkxPSIxMzgzLjAzMTMiIHkyPSIxMzk2LjAzMTMiLz48bGluZSBzdHlsZT0ic3Ryb2tlOiMxODE4MTg7c3Ryb2tlLXdpZHRoOjEuMDtzdHJva2UtZGFzaGFycmF5OjIuMCwyLjA7IiB4MT0iMzk4IiB4Mj0iNDQ1IiB5MT0iMTM5Ni4wMzEzIiB5Mj0iMTM5Ni4wMzEzIi8+PHBvbHlnb24gZmlsbD0iIzE4MTgxOCIgcG9pbnRzPSI0MDgsMTM5Mi4wMzEzLDM5OCwxMzk2LjAzMTMsNDA4LDE0MDAuMDMxMyw0MDQsMTM5Ni4wMzEzIiBzdHlsZT0ic3Ryb2tlOiMxODE4MTg7c3Ryb2tlLXdpZHRoOjEuMDsiLz48dGV4dCBmaWxsPSIjMDAwMDAwIiBmb250LWZhbWlseT0ic2Fucy1zZXJpZiIgZm9udC1zaXplPSIxMyIgZm9udC13ZWlnaHQ9ImJvbGQiIGxlbmd0aEFkanVzdD0ic3BhY2luZyIgdGV4dExlbmd0aD0iMTQiIHg9IjQxMCIgeT0iMTM3OS40MDYzIj4zNzwvdGV4dD48dGV4dCBmaWxsPSIjMDAwMDAwIiBmb250LWZhbWlseT0ic2Fucy1zZXJpZiIgZm9udC1zaXplPSIxMyIgbGVuZ3RoQWRqdXN0PSJzcGFjaW5nIiB0ZXh0TGVuZ3RoPSI3IiB4PSI0MjgiIHk9IjEzNzkuNDA2MyI+JiMxNjA7PC90ZXh0PjwhLS1TUkM9W2pMUFRKempjNUJ4dGh4M0tnd2VBVFNSMk1qR1hQTVhpeDA4WTc2dFFEQ2FvWmpFYjBwand4VDFvSHJPVzJMeTk5SzBOTTRpQU9MbjBhY3ExR2lCN1p2ZFZyX1BMX3lBRXl2ZXMwU0I4ZkRxYXpranBka1Z1VVN1dllIWkpMSUtzRlllWlhYNGJOS01pY1RxWm9NRE1yRG1oWGVjQUk4ejhhUVlld0Fudmpjb2w3M01VcVlpTFhNSjRVaGRNZ0FNb2RMV3NZdGFwQ3prOFJSd2Q2UHptSjRaS25MNUhhcmNaY2lEcFVSOVE5ZWo1TjVqbkNndVVxUUhGTXNibXdHSkZ4RUUzcnNKX3Q0YmdrUVNQRmV2bk55WkpUcmRvV21VekI0YmRaRGVFSlh4WG5MTXlpcVlzZ2VweHI4YmhCalU5amllbDBTTkYtSHZ2VXRuU2p1U1M3a0VURFVqaXR3aGl1bEdTLUlDMVo5U21wU2EwVGxMREFGaWhGNUZHbDh6cmh3Ml9LMEhqR1hBVThNTkMwcE1Icm9sYUM0eEE1SWtfendEWWJHaG1SUHBjaDY4UGR3dGdJOUphSThYMWlYdjMyZEVEeDRoYngzc0V5X2F1WmtyejRiUDFDNGFUS3o3ZEkweHJxSlVZV1c2VGtKVWxYTnYteWoyOXdjQ0tMUFRQNTdkd2F5d2d1SFBDdmRnVWY4dnRJVDllTC1aZmNDR3VpZnZsY0JiZlN3RUFQX3UySkVqWW15ZWx1RUUyU1JSZjlFSWN5U3dxV29HaDhUT1hPa3djczRRNWg5TDlmT3hkemVvQkY4Y05HOVBVZGtpRVVlTmwxZUkwZjBkLVlTY19mdHZmQXFyeExBRS1aVVZVakUwNXJQMXcySWVDQWM0MGpoRG5ON0hqdzhJNFVlc05QZDd3SnJmXzJ6Rk40S3J0TURXRVF0UzVRTFkwWXMtQ3l0YTdiak5LUmtZZk01WTg4Yk1JREtzOEE5ZUVxRVJTNFBjQTZ6S1FCWXdHUEVQNjlhX1Y1SHc3dlp5Z1ZZRk1wSUxfWDFtUHhsLUl2dU4xOEp4TzdoVWI3VGlfUWxYeGhVaVI0bWpKWVl6VVdrbGNMbG1FQk16RnZRb0JYMEh6Rmd1Z3B5Ri1NMllZUXBBUVk0Wm91N1hxaEVrUEUyN3NpYndscnF1aUc3akpOMFI3U3hZTVRNUWJxVXhsSnZDdU5KQmcxVWxtc0FaRFdwQmxKblVDYXhWcXFBV2tEZnNkdUVOOXZYSkVCQzZxdU1JUDJTSDZXcVhLakIyQ19EN2VzRUhyemt3VXhZazQzNGR6M2VGZHYwc1pXM1c5Vmw0VnEtdjVQSElPMzhPSDdGVWhJQVA1cXJicnJ6ZmpLemhVTlZWeVNlN25GSnhtYmxrTTVxTzJOXzEzbVpTWkd1RDMwdXZBWk91MkxUcEdxZ3ZQZHdNN3pwamlnRi1IaWxhRS1FWm9pdF9Ec0V6LTh3YmpkNFpKRE1URnJRdHB2VGtJVXlkTTJQR0RGbkpjS2U4aWxaRUJ3bko2QU1TWEhRZWJOOHJSNDVmU2x5X3ktX3ZMakctIC1EZmlRS2VWYXZ5NE5tcmZXU2JudHA0S28tNGpUZk5KS0xOZmpMRWxNUmpuLWJPSGpSYkh0eUVhTWdFVWtRc2UtYk44T2YwbnkzekY5X28zbUdOeUd2ZEYwT3JQQUsyeEsxSzBWSDVVUjhmcVdvY0NVZkNtUXpFOVVueXRhYWEzUGpMckYtczhrcFJqcHNwR3NpakZaSk10WnVSYlhtRlZ0Vi1Mc0pFVkJrRkQ2TjMtb3Jva20yMjlILUEwaGticWhqbG90MEtodV91Nk5KX3NTenY2Tl91cGh5Uldfb1BLd3NObkJlcVlzWEREaDdaRHhZMHlvZkJmYm5yVjhLVzZkanpxblJ4b193X0lUZjZEbHFPd3hNSmx3X0d5MF0tLT48L2c+PC9zdmc+;" vertex="1" parent="1">
            <mxGeometry x="320" y="-1180" width="1212.11" height="1770" as="geometry" />
          </mxCell>
        </UserObject>
      </root>
    </mxGraphModel>
  </diagram>
</mxfile>
